<svg id="Layer_1" data-name="Layer 1" xmlns="http://www.w3.org/2000/svg" viewBox="0 0 56.22 50.84"><title>blackberry</title><path d="M35.6,49.2a7.36,7.36,0,1,0-6.9-7.8v0.5a7.19,7.19,0,0,0,6.9,7.3" transform="translate(-7.9 -10.58)" fill="#607332"/><path d="M21.9,49.2a7.36,7.36,0,0,0,0-14.7,7.36,7.36,0,0,0,0,14.7" transform="translate(-7.9 -10.58)" fill="#607332"/><path d="M49.4,49.2a7.36,7.36,0,1,0-6.9-7.8v0.5a7.19,7.19,0,0,0,6.9,7.3" transform="translate(-7.9 -10.58)" fill="#607332"/><path d="M28.8,61.4a7.36,7.36,0,0,0,0-14.7,7.44,7.44,0,0,0-6.9,7.8,7.34,7.34,0,0,0,6.9,6.9" transform="translate(-7.9 -10.58)" fill="#607332"/><path d="M42.5,61.4a7.36,7.36,0,1,0-6.9-7.8v0.5a7.13,7.13,0,0,0,6.9,7.3" transform="translate(-7.9 -10.58)" fill="#607332"/><path d="M15.5,37a7.36,7.36,0,0,0,0-14.7,7.44,7.44,0,0,0-6.9,7.8A7.59,7.59,0,0,0,15.5,37" transform="translate(-7.9 -10.58)" fill="#607332"/><path d="M29.3,37a7.36,7.36,0,0,0,0-14.7,7.36,7.36,0,0,0,0,14.7" transform="translate(-7.9 -10.58)" fill="#607332"/><path d="M42.5,37a7.36,7.36,0,1,0-6.9-7.8v0.5A7.19,7.19,0,0,0,42.5,37" transform="translate(-7.9 -10.58)" fill="#607332"/><path d="M56.3,37a7.36,7.36,0,1,0-6.9-7.8v0.5A7.13,7.13,0,0,0,56.3,37" transform="translate(-7.9 -10.58)" fill="#607332"/><path d="M14.8,25.2a7.13,7.13,0,0,0,6.9-7.3,7.13,7.13,0,0,0-6.9-7.3,7.13,7.13,0,0,0-6.9,7.3,7.13,7.13,0,0,0,6.9,7.3" transform="translate(-7.9 -10.58)" fill="#607332"/><path d="M28.5,25.2a7.13,7.13,0,0,0,6.9-7.3,7.13,7.13,0,0,0-6.9-7.3,7.13,7.13,0,0,0-6.9,7.3,7.13,7.13,0,0,0,6.9,7.3" transform="translate(-7.9 -10.58)" fill="#607332"/><path d="M42.3,25.2a7.13,7.13,0,0,0,6.9-7.3A6.86,6.86,0,0,0,35.5,17v0.9a6.92,6.92,0,0,0,6.8,7.3" transform="translate(-7.9 -10.58)" fill="#607332"/><path d="M56,25.2a7.13,7.13,0,0,0,6.9-7.3A6.86,6.86,0,0,0,49.2,17v0.9A7,7,0,0,0,56,25.2" transform="translate(-7.9 -10.58)" fill="#607332"/></svg>