<svg id="Layer_1" data-name="Layer 1" xmlns="http://www.w3.org/2000/svg" viewBox="0 0 60.69 72.4"><title>cherry</title><path d="M30.59,53.33s-8.33-5.39-14.27,2.61c-1,2.17-6.69,18.6,11,24.93,1.61,0,14.24,1.34,17.46-16.93,0-1.61,2.69-13.7-14.24-10.61" transform="translate(-14.66 -9.92)" fill="#607332"/><path d="M61,54.76s-8.33-5.39-14.24,2.61C45.66,59.54,40,76,57.73,82.3c1.61,0,14.24,1.34,17.46-16.93,0-1.61,2.69-13.7-14.24-10.61" transform="translate(-14.66 -9.92)" fill="#607332"/><path d="M28.59,55.23s16.12-33.9,18.81-36c1.07-.81,4-4.57,0-4.3-1.34,0-1.61-3.49-1.61-3.49s1.71-2.15,2.69-1.07c1-.3,2.69-1.07,3,0.54S55,18.16,55,18.16s3.76,5.78,4,21.23c0,2.69,2.42,19.2,4.3,18.06-1.07.06-1.34,2.28-4.84,0.06,0-1.51-1.11-17.64-1.11-17.64S56,20,53.56,20.26c-0.81-2.15-1.34-4.3-4-.54S30.47,47.4,32.62,55.23c-0.27.76-2.15,2.17-4,0" transform="translate(-14.66 -9.92)" fill="#a8bf50"/></svg>