<svg id="Layer_1" data-name="Layer 1" xmlns="http://www.w3.org/2000/svg" xmlns:xlink="http://www.w3.org/1999/xlink" viewBox="0 0 600.53 343.99"><defs><clipPath id="clip-path" transform="translate(-7.16 -6.65)"><rect x="-5.33" y="-38.56" width="1155.78" height="394.54" fill="none"/></clipPath></defs><title>graph</title><rect x="72.3" y="0.03" width="528.22" height="298.71" fill="#503519"/><rect x="164.73" width="49.54" height="298.71" fill="#442b0f"/><rect x="239.99" y="0.82" width="49.54" height="297" fill="#442b0f"/><rect x="307.51" y="0.82" width="49.54" height="297" fill="#442b0f"/><rect x="93.09" y="0.82" width="49.54" height="297" fill="#442b0f"/><rect x="380.68" y="0.45" width="49.54" height="297" fill="#442b0f"/><rect x="450.24" y="0.82" width="49.54" height="297" fill="#442b0f"/><rect x="528.84" y="0.45" width="49.54" height="297" fill="#442b0f"/><line x1="56.55" y1="20.42" x2="71.63" y2="20.42" fill="none" stroke="#546238"/><line x1="56.55" y1="102.36" x2="71.63" y2="102.36" fill="none" stroke="#546238"/><line x1="56.55" y1="143.32" x2="71.63" y2="143.32" fill="none" stroke="#546238"/><line x1="56.55" y1="225.26" x2="71.63" y2="225.26" fill="none" stroke="#546238"/><path d="M112,314.68h0l-2.05,1.68-0.59-.74,2.8-2.29h0.82v11.34h-1v-10Z" transform="translate(-7.16 -6.65)" fill="#546238"/><path d="M121.76,319.68h0a1.91,1.91,0,0,1-.78.36,3.81,3.81,0,0,1-.91.12,3.52,3.52,0,0,1-1.39-.27,3.4,3.4,0,0,1-1.1-.75,3.36,3.36,0,0,1-.72-1.11,3.61,3.61,0,0,1-.26-1.37,3.53,3.53,0,0,1,.28-1.42,3.29,3.29,0,0,1,.78-1.11,3.62,3.62,0,0,1,1.18-.73,4.29,4.29,0,0,1,3,0,3.64,3.64,0,0,1,1.18.73,3.29,3.29,0,0,1,.78,1.11,3.53,3.53,0,0,1,.28,1.42,3.63,3.63,0,0,1-.1.85,4.46,4.46,0,0,1-.26.76,7.26,7.26,0,0,1-.34.68l-0.34.61-3.08,5.11h-1.22Zm-1.47-.35a2.61,2.61,0,0,0,1-.21,2.67,2.67,0,0,0,.85-0.57,2.7,2.7,0,0,0,.57-0.84,2.6,2.6,0,0,0,.21-1,2.94,2.94,0,0,0-.19-1.08,2.4,2.4,0,0,0-1.39-1.39,3.15,3.15,0,0,0-2.16,0,2.4,2.4,0,0,0-1.39,1.39,2.94,2.94,0,0,0-.19,1.08,2.6,2.6,0,0,0,.21,1,2.68,2.68,0,0,0,1.41,1.41A2.59,2.59,0,0,0,120.28,319.32Z" transform="translate(-7.16 -6.65)" fill="#546238"/><path d="M131.54,314.2L127,324.67H126l4.6-10.48H125.1v-0.86h6.44v0.86Z" transform="translate(-7.16 -6.65)" fill="#546238"/><path d="M133.19,319q0-.61.06-1.29a9,9,0,0,1,.21-1.33,6.75,6.75,0,0,1,.42-1.23,3.83,3.83,0,0,1,.68-1,3.09,3.09,0,0,1,1-.71,3.77,3.77,0,0,1,2.77,0,3.1,3.1,0,0,1,1,.71,3.84,3.84,0,0,1,.68,1,6.75,6.75,0,0,1,.42,1.23,9.16,9.16,0,0,1,.21,1.33q0.06,0.68.06,1.29t-0.06,1.3a9.17,9.17,0,0,1-.21,1.32,6.7,6.7,0,0,1-.42,1.23,3.81,3.81,0,0,1-.68,1,3.07,3.07,0,0,1-1,.71,3.76,3.76,0,0,1-2.77,0,3.06,3.06,0,0,1-1-.71,3.8,3.8,0,0,1-.68-1,6.7,6.7,0,0,1-.42-1.23,9,9,0,0,1-.21-1.32Q133.19,319.63,133.19,319Zm1.06,0q0,0.45,0,1a9.7,9.7,0,0,0,.13,1.09,6.87,6.87,0,0,0,.28,1.08,3.6,3.6,0,0,0,.48.94,2.33,2.33,0,0,0,.73.66,2.29,2.29,0,0,0,2.07,0,2.3,2.3,0,0,0,.74-0.66,3.62,3.62,0,0,0,.48-0.94,6.87,6.87,0,0,0,.28-1.08,9.81,9.81,0,0,0,.13-1.09q0-.54,0-1t0-1a9.79,9.79,0,0,0-.13-1.1,6.87,6.87,0,0,0-.28-1.08,3.62,3.62,0,0,0-.48-0.94,2.31,2.31,0,0,0-.74-0.66,2.28,2.28,0,0,0-2.07,0,2.3,2.3,0,0,0-.74.66,3.61,3.61,0,0,0-.48.94,6.87,6.87,0,0,0-.28,1.08,9.67,9.67,0,0,0-.13,1.1Q134.25,318.57,134.25,319Z" transform="translate(-7.16 -6.65)" fill="#546238"/><path d="M183.69,314.68h0l-2.05,1.68-0.59-.74,2.8-2.29h0.82v11.34h-1v-10Z" transform="translate(-7.16 -6.65)" fill="#546238"/><path d="M193.47,319.68h0a1.91,1.91,0,0,1-.78.36,3.81,3.81,0,0,1-.91.12,3.52,3.52,0,0,1-1.39-.27,3.4,3.4,0,0,1-1.1-.75,3.36,3.36,0,0,1-.72-1.11,3.61,3.61,0,0,1-.26-1.37,3.53,3.53,0,0,1,.28-1.42,3.29,3.29,0,0,1,.78-1.11,3.62,3.62,0,0,1,1.18-.73,4.29,4.29,0,0,1,3,0,3.64,3.64,0,0,1,1.18.73,3.29,3.29,0,0,1,.78,1.11,3.53,3.53,0,0,1,.28,1.42,3.63,3.63,0,0,1-.1.85,4.46,4.46,0,0,1-.26.76,7.26,7.26,0,0,1-.34.68l-0.34.61-3.08,5.11h-1.22Zm-1.47-.35a2.61,2.61,0,0,0,1-.21,2.67,2.67,0,0,0,.85-0.57,2.7,2.7,0,0,0,.57-0.84,2.6,2.6,0,0,0,.21-1,2.94,2.94,0,0,0-.19-1.08,2.4,2.4,0,0,0-1.39-1.39,3.15,3.15,0,0,0-2.16,0,2.4,2.4,0,0,0-1.39,1.39,2.94,2.94,0,0,0-.19,1.08,2.6,2.6,0,0,0,.21,1,2.68,2.68,0,0,0,1.41,1.41A2.59,2.59,0,0,0,192,319.32Z" transform="translate(-7.16 -6.65)" fill="#546238"/><path d="M203.26,314.2l-4.52,10.48h-1.07l4.6-10.48h-5.45v-0.86h6.44v0.86Z" transform="translate(-7.16 -6.65)" fill="#546238"/><path d="M211.59,314.2l-4.52,10.48H206l4.6-10.48h-5.45v-0.86h6.44v0.86Z" transform="translate(-7.16 -6.65)" fill="#546238"/><path d="M328.4,323.55l4.26-4.5q0.29-.29.58-0.62a5.74,5.74,0,0,0,.52-0.69,3.75,3.75,0,0,0,.38-0.76,2.55,2.55,0,0,0,.14-0.87,2,2,0,0,0-.64-1.55A2.37,2.37,0,0,0,332,314a2.24,2.24,0,0,0-1.49.51,2.34,2.34,0,0,0-.79,1.35l-1.12-.11a3,3,0,0,1,1.2-2,3.82,3.82,0,0,1,2.24-.65,3.87,3.87,0,0,1,1.25.2,3.28,3.28,0,0,1,1,.57,2.67,2.67,0,0,1,1,2.13,3.58,3.58,0,0,1-.2,1.22,5.08,5.08,0,0,1-.53,1.07,6.78,6.78,0,0,1-.75,1l-0.86.9-3.54,3.64h6v0.87h-7v-1.12Z" transform="translate(-7.16 -6.65)" fill="#546238"/><path d="M336.49,319q0-.61.06-1.29a9,9,0,0,1,.21-1.33,6.71,6.71,0,0,1,.42-1.23,3.8,3.8,0,0,1,.68-1,3.09,3.09,0,0,1,1-.71,3.77,3.77,0,0,1,2.77,0,3.1,3.1,0,0,1,1,.71,3.83,3.83,0,0,1,.68,1,6.78,6.78,0,0,1,.42,1.23,9.16,9.16,0,0,1,.21,1.33Q344,318.4,344,319t-0.06,1.3a9.17,9.17,0,0,1-.21,1.32,6.73,6.73,0,0,1-.42,1.23,3.8,3.8,0,0,1-.68,1,3.07,3.07,0,0,1-1,.71,3.76,3.76,0,0,1-2.77,0,3.06,3.06,0,0,1-1-.71,3.77,3.77,0,0,1-.68-1,6.66,6.66,0,0,1-.42-1.23,9,9,0,0,1-.21-1.32Q336.48,319.63,336.49,319Zm1.06,0q0,0.45,0,1a9.7,9.7,0,0,0,.13,1.09,6.87,6.87,0,0,0,.28,1.08,3.62,3.62,0,0,0,.48.94,2.31,2.31,0,0,0,.73.66,2.29,2.29,0,0,0,2.07,0,2.3,2.3,0,0,0,.74-0.66,3.56,3.56,0,0,0,.48-0.94,6.76,6.76,0,0,0,.28-1.08,9.7,9.7,0,0,0,.13-1.09q0-.54,0-1t0-1a9.68,9.68,0,0,0-.13-1.1,6.76,6.76,0,0,0-.28-1.08,3.56,3.56,0,0,0-.48-0.94,2.3,2.3,0,0,0-.74-0.66,2.28,2.28,0,0,0-2.07,0,2.3,2.3,0,0,0-.74.66,3.62,3.62,0,0,0-.48.94,6.87,6.87,0,0,0-.28,1.08,9.67,9.67,0,0,0-.13,1.1Q337.54,318.57,337.54,319Z" transform="translate(-7.16 -6.65)" fill="#546238"/><path d="M344.82,319q0-.61.06-1.29a9,9,0,0,1,.21-1.33,6.71,6.71,0,0,1,.42-1.23,3.8,3.8,0,0,1,.68-1,3.09,3.09,0,0,1,1-.71,3.77,3.77,0,0,1,2.77,0,3.1,3.1,0,0,1,1,.71,3.83,3.83,0,0,1,.68,1,6.78,6.78,0,0,1,.42,1.23,9.16,9.16,0,0,1,.21,1.33q0.06,0.68.06,1.29t-0.06,1.3a9.17,9.17,0,0,1-.21,1.32,6.73,6.73,0,0,1-.42,1.23,3.8,3.8,0,0,1-.68,1,3.07,3.07,0,0,1-1,.71,3.76,3.76,0,0,1-2.77,0,3.06,3.06,0,0,1-1-.71,3.77,3.77,0,0,1-.68-1,6.66,6.66,0,0,1-.42-1.23,9,9,0,0,1-.21-1.32Q344.81,319.63,344.82,319Zm1.06,0q0,0.45,0,1a9.7,9.7,0,0,0,.13,1.09,6.87,6.87,0,0,0,.28,1.08,3.62,3.62,0,0,0,.48.94,2.31,2.31,0,0,0,.73.66,2.29,2.29,0,0,0,2.07,0,2.3,2.3,0,0,0,.74-0.66,3.56,3.56,0,0,0,.48-0.94,6.76,6.76,0,0,0,.28-1.08,9.7,9.7,0,0,0,.13-1.09q0-.54,0-1t0-1a9.68,9.68,0,0,0-.13-1.1,6.76,6.76,0,0,0-.28-1.08,3.56,3.56,0,0,0-.48-0.94,2.3,2.3,0,0,0-.74-0.66,2.28,2.28,0,0,0-2.07,0,2.3,2.3,0,0,0-.74.66,3.62,3.62,0,0,0-.48.94,6.87,6.87,0,0,0-.28,1.08,9.67,9.67,0,0,0-.13,1.1Q345.87,318.57,345.87,319Z" transform="translate(-7.16 -6.65)" fill="#546238"/><path d="M358.37,319.68h0a1.91,1.91,0,0,1-.78.36,3.81,3.81,0,0,1-.91.12,3.52,3.52,0,0,1-1.39-.27,3.34,3.34,0,0,1-1.83-1.85,3.61,3.61,0,0,1-.26-1.37,3.54,3.54,0,0,1,.28-1.42,3.3,3.3,0,0,1,.78-1.11,3.63,3.63,0,0,1,1.18-.73,4.29,4.29,0,0,1,3,0,3.63,3.63,0,0,1,1.18.73,3.29,3.29,0,0,1,.78,1.11,3.54,3.54,0,0,1,.28,1.42,3.66,3.66,0,0,1-.1.85,4.38,4.38,0,0,1-.26.76,7.38,7.38,0,0,1-.34.68l-0.34.61-3.08,5.11h-1.22Zm-1.47-.35a2.61,2.61,0,0,0,1-.21,2.65,2.65,0,0,0,1.42-1.41,2.6,2.6,0,0,0,.21-1,2.94,2.94,0,0,0-.19-1.08,2.43,2.43,0,0,0-.54-0.84,2.46,2.46,0,0,0-.84-0.54,3.15,3.15,0,0,0-2.16,0,2.39,2.39,0,0,0-1.39,1.39,2.92,2.92,0,0,0-.19,1.08,2.6,2.6,0,0,0,.21,1,2.67,2.67,0,0,0,1.41,1.41A2.59,2.59,0,0,0,356.89,319.32Z" transform="translate(-7.16 -6.65)" fill="#546238"/><path d="M402.52,323.55l4.26-4.5q0.29-.29.58-0.62a5.74,5.74,0,0,0,.52-0.69,3.75,3.75,0,0,0,.38-0.76,2.55,2.55,0,0,0,.14-0.87,2,2,0,0,0-.64-1.55,2.37,2.37,0,0,0-1.62-.56,2.24,2.24,0,0,0-1.49.51,2.34,2.34,0,0,0-.79,1.35l-1.12-.11a3,3,0,0,1,1.2-2,3.82,3.82,0,0,1,2.24-.65,3.87,3.87,0,0,1,1.25.2,3.28,3.28,0,0,1,1,.57,2.67,2.67,0,0,1,1,2.13,3.58,3.58,0,0,1-.2,1.22,5.08,5.08,0,0,1-.53,1.07,6.78,6.78,0,0,1-.75,1l-0.86.9-3.54,3.64h6v0.87h-7v-1.12Z" transform="translate(-7.16 -6.65)" fill="#546238"/><path d="M410.6,319q0-.61.06-1.29a9,9,0,0,1,.21-1.33,6.71,6.71,0,0,1,.42-1.23,3.8,3.8,0,0,1,.68-1,3.09,3.09,0,0,1,1-.71,3.77,3.77,0,0,1,2.77,0,3.1,3.1,0,0,1,1,.71,3.83,3.83,0,0,1,.68,1,6.78,6.78,0,0,1,.42,1.23,9.16,9.16,0,0,1,.21,1.33q0.06,0.68.06,1.29T418,320.3a9.17,9.17,0,0,1-.21,1.32,6.73,6.73,0,0,1-.42,1.23,3.8,3.8,0,0,1-.68,1,3.07,3.07,0,0,1-1,.71,3.76,3.76,0,0,1-2.77,0,3.06,3.06,0,0,1-1-.71,3.77,3.77,0,0,1-.68-1,6.66,6.66,0,0,1-.42-1.23,9,9,0,0,1-.21-1.32Q410.6,319.63,410.6,319Zm1.06,0q0,0.45,0,1a9.7,9.7,0,0,0,.13,1.09,6.87,6.87,0,0,0,.28,1.08,3.62,3.62,0,0,0,.48.94,2.31,2.31,0,0,0,.73.66,2.29,2.29,0,0,0,2.07,0,2.3,2.3,0,0,0,.74-0.66,3.56,3.56,0,0,0,.48-0.94,6.76,6.76,0,0,0,.28-1.08A9.7,9.7,0,0,0,417,320q0-.54,0-1t0-1a9.68,9.68,0,0,0-.13-1.1,6.76,6.76,0,0,0-.28-1.08,3.56,3.56,0,0,0-.48-0.94,2.3,2.3,0,0,0-.74-0.66,2.28,2.28,0,0,0-2.07,0,2.3,2.3,0,0,0-.74.66,3.62,3.62,0,0,0-.48.94,6.87,6.87,0,0,0-.28,1.08,9.67,9.67,0,0,0-.13,1.1Q411.66,318.57,411.66,319Z" transform="translate(-7.16 -6.65)" fill="#546238"/><path d="M422.7,314.68h0l-2.05,1.68-0.59-.74,2.8-2.29h0.82v11.34h-1v-10Z" transform="translate(-7.16 -6.65)" fill="#546238"/><path d="M427.26,319q0-.61.06-1.29a9,9,0,0,1,.21-1.33,6.71,6.71,0,0,1,.42-1.23,3.8,3.8,0,0,1,.68-1,3.09,3.09,0,0,1,1-.71,3.77,3.77,0,0,1,2.77,0,3.1,3.1,0,0,1,1,.71,3.83,3.83,0,0,1,.68,1,6.78,6.78,0,0,1,.42,1.23,9.16,9.16,0,0,1,.21,1.33q0.06,0.68.06,1.29t-0.06,1.3a9.17,9.17,0,0,1-.21,1.32,6.73,6.73,0,0,1-.42,1.23,3.8,3.8,0,0,1-.68,1,3.07,3.07,0,0,1-1,.71,3.76,3.76,0,0,1-2.77,0,3.06,3.06,0,0,1-1-.71,3.77,3.77,0,0,1-.68-1,6.66,6.66,0,0,1-.42-1.23,9,9,0,0,1-.21-1.32Q427.26,319.63,427.26,319Zm1.06,0q0,0.45,0,1a9.7,9.7,0,0,0,.13,1.09,6.87,6.87,0,0,0,.28,1.08,3.62,3.62,0,0,0,.48.94,2.31,2.31,0,0,0,.73.66,2.29,2.29,0,0,0,2.07,0,2.3,2.3,0,0,0,.74-0.66,3.56,3.56,0,0,0,.48-0.94,6.76,6.76,0,0,0,.28-1.08,9.7,9.7,0,0,0,.13-1.09q0-.54,0-1t0-1a9.68,9.68,0,0,0-.13-1.1,6.76,6.76,0,0,0-.28-1.08,3.56,3.56,0,0,0-.48-0.94,2.3,2.3,0,0,0-.74-0.66,2.28,2.28,0,0,0-2.07,0,2.3,2.3,0,0,0-.74.66,3.62,3.62,0,0,0-.48.94,6.87,6.87,0,0,0-.28,1.08,9.67,9.67,0,0,0-.13,1.1Q428.32,318.57,428.32,319Z" transform="translate(-7.16 -6.65)" fill="#546238"/><path d="M475.8,323.55l4.26-4.5q0.29-.29.58-0.62a5.74,5.74,0,0,0,.52-0.69,3.75,3.75,0,0,0,.38-0.76,2.55,2.55,0,0,0,.14-0.87,2,2,0,0,0-.64-1.55,2.37,2.37,0,0,0-1.62-.56,2.24,2.24,0,0,0-1.49.51,2.34,2.34,0,0,0-.79,1.35l-1.12-.11a3,3,0,0,1,1.2-2,3.82,3.82,0,0,1,2.24-.65,3.87,3.87,0,0,1,1.25.2,3.28,3.28,0,0,1,1,.57,2.67,2.67,0,0,1,1,2.13,3.58,3.58,0,0,1-.2,1.22,5.08,5.08,0,0,1-.53,1.07,6.78,6.78,0,0,1-.75,1l-0.86.9-3.54,3.64h6v0.87h-7v-1.12Z" transform="translate(-7.16 -6.65)" fill="#546238"/><path d="M483.89,319q0-.61.06-1.29a9,9,0,0,1,.21-1.33,6.71,6.71,0,0,1,.42-1.23,3.8,3.8,0,0,1,.68-1,3.09,3.09,0,0,1,1-.71,3.77,3.77,0,0,1,2.77,0,3.1,3.1,0,0,1,1,.71,3.83,3.83,0,0,1,.68,1,6.78,6.78,0,0,1,.42,1.23,9.16,9.16,0,0,1,.21,1.33q0.06,0.68.06,1.29t-0.06,1.3a9.17,9.17,0,0,1-.21,1.32,6.73,6.73,0,0,1-.42,1.23,3.8,3.8,0,0,1-.68,1,3.07,3.07,0,0,1-1,.71,3.76,3.76,0,0,1-2.77,0,3.06,3.06,0,0,1-1-.71,3.77,3.77,0,0,1-.68-1,6.66,6.66,0,0,1-.42-1.23,9,9,0,0,1-.21-1.32Q483.89,319.63,483.89,319Zm1.06,0q0,0.45,0,1a9.7,9.7,0,0,0,.13,1.09,6.87,6.87,0,0,0,.28,1.08,3.62,3.62,0,0,0,.48.94,2.31,2.31,0,0,0,.73.66,2.29,2.29,0,0,0,2.07,0,2.3,2.3,0,0,0,.74-0.66,3.56,3.56,0,0,0,.48-0.94,6.76,6.76,0,0,0,.28-1.08,9.7,9.7,0,0,0,.13-1.09q0-.54,0-1t0-1a9.68,9.68,0,0,0-.13-1.1,6.76,6.76,0,0,0-.28-1.08,3.56,3.56,0,0,0-.48-0.94,2.3,2.3,0,0,0-.74-0.66,2.28,2.28,0,0,0-2.07,0,2.3,2.3,0,0,0-.74.66,3.62,3.62,0,0,0-.48.94,6.87,6.87,0,0,0-.28,1.08A9.67,9.67,0,0,0,485,318Q484.95,318.57,484.95,319Z" transform="translate(-7.16 -6.65)" fill="#546238"/><path d="M496,314.68h0l-2.05,1.68-0.59-.74,2.8-2.29h0.82v11.34h-1v-10Z" transform="translate(-7.16 -6.65)" fill="#546238"/><path d="M504.31,314.68h0l-2.05,1.68-0.59-.74,2.8-2.29h0.82v11.34h-1v-10Z" transform="translate(-7.16 -6.65)" fill="#546238"/><path d="M549.21,323.55l4.26-4.5q0.29-.29.58-0.62a5.74,5.74,0,0,0,.52-0.69,3.75,3.75,0,0,0,.38-0.76,2.55,2.55,0,0,0,.14-0.87,2,2,0,0,0-.64-1.55,2.37,2.37,0,0,0-1.62-.56,2.24,2.24,0,0,0-1.49.51,2.34,2.34,0,0,0-.79,1.35l-1.12-.11a3,3,0,0,1,1.2-2,3.82,3.82,0,0,1,2.24-.65,3.87,3.87,0,0,1,1.25.2,3.28,3.28,0,0,1,1,.57,2.67,2.67,0,0,1,1,2.13,3.58,3.58,0,0,1-.2,1.22,5.08,5.08,0,0,1-.53,1.07,6.78,6.78,0,0,1-.75,1l-0.86.9-3.54,3.64h6v0.87h-7v-1.12Z" transform="translate(-7.16 -6.65)" fill="#546238"/><path d="M557.3,319q0-.61.06-1.29a9,9,0,0,1,.21-1.33,6.71,6.71,0,0,1,.42-1.23,3.8,3.8,0,0,1,.68-1,3.09,3.09,0,0,1,1-.71,3.77,3.77,0,0,1,2.77,0,3.1,3.1,0,0,1,1,.71,3.83,3.83,0,0,1,.68,1,6.78,6.78,0,0,1,.42,1.23,9.16,9.16,0,0,1,.21,1.33q0.06,0.68.06,1.29t-0.06,1.3a9.17,9.17,0,0,1-.21,1.32,6.73,6.73,0,0,1-.42,1.23,3.8,3.8,0,0,1-.68,1,3.07,3.07,0,0,1-1,.71,3.76,3.76,0,0,1-2.77,0,3.06,3.06,0,0,1-1-.71,3.77,3.77,0,0,1-.68-1,6.66,6.66,0,0,1-.42-1.23,9,9,0,0,1-.21-1.32Q557.3,319.63,557.3,319Zm1.06,0q0,0.45,0,1a9.7,9.7,0,0,0,.13,1.09,6.87,6.87,0,0,0,.28,1.08,3.62,3.62,0,0,0,.48.94,2.31,2.31,0,0,0,.73.66,2.29,2.29,0,0,0,2.07,0,2.3,2.3,0,0,0,.74-0.66,3.56,3.56,0,0,0,.48-0.94,6.76,6.76,0,0,0,.28-1.08,9.7,9.7,0,0,0,.13-1.09q0-.54,0-1t0-1a9.68,9.68,0,0,0-.13-1.1,6.76,6.76,0,0,0-.28-1.08,3.56,3.56,0,0,0-.48-0.94,2.3,2.3,0,0,0-.74-0.66,2.28,2.28,0,0,0-2.07,0,2.3,2.3,0,0,0-.74.66,3.62,3.62,0,0,0-.48.94,6.87,6.87,0,0,0-.28,1.08,9.67,9.67,0,0,0-.13,1.1Q558.36,318.57,558.36,319Z" transform="translate(-7.16 -6.65)" fill="#546238"/><path d="M569.39,314.68h0l-2.05,1.68-0.59-.74,2.8-2.29h0.82v11.34h-1v-10Z" transform="translate(-7.16 -6.65)" fill="#546238"/><path d="M575.24,322.3a2.92,2.92,0,0,0,.87,1.26,2.36,2.36,0,0,0,1.51.44,3,3,0,0,0,1.11-.19,2.15,2.15,0,0,0,.79-0.53,2.26,2.26,0,0,0,.47-0.79,2.82,2.82,0,0,0,.16-1,2.08,2.08,0,0,0-.26-1.07,2.2,2.2,0,0,0-.69-0.73,3,3,0,0,0-1-.41,4.66,4.66,0,0,0-1.08-.13h-0.42v-1h0.48a3.54,3.54,0,0,0,.9-0.12,2.47,2.47,0,0,0,.82-0.38,2,2,0,0,0,.58-0.66,2,2,0,0,0,.22-1,2.06,2.06,0,0,0-.57-1.5,2,2,0,0,0-1.53-.58,2.29,2.29,0,0,0-1.27.36,2.52,2.52,0,0,0-.88,1l-0.91-.51a2.87,2.87,0,0,1,1.27-1.28,4.16,4.16,0,0,1,3-.22,3,3,0,0,1,1,.54,2.52,2.52,0,0,1,.68.91,3.07,3.07,0,0,1,.25,1.28,2.74,2.74,0,0,1-.51,1.64,2.64,2.64,0,0,1-1.51,1v0a2.88,2.88,0,0,1,1,.36,3,3,0,0,1,.76.65,2.92,2.92,0,0,1,.5.87,3,3,0,0,1,.18,1,3.68,3.68,0,0,1-.22,1.27,2.8,2.8,0,0,1-.66,1,3.12,3.12,0,0,1-1.1.7,4.21,4.21,0,0,1-1.54.26,4.12,4.12,0,0,1-2.17-.54,3.27,3.27,0,0,1-1.34-1.69Z" transform="translate(-7.16 -6.65)" fill="#546238"/><g clip-path="url(#clip-path)"><path d="M10.76,257.21v-2.29a4.24,4.24,0,0,1,.1-0.87,2.52,2.52,0,0,1,.33-0.83,1.86,1.86,0,0,1,.64-0.62,2,2,0,0,1,1-.24,2.06,2.06,0,0,1,.93.2,1.82,1.82,0,0,1,.64.53,2.26,2.26,0,0,1,.38.76,3.26,3.26,0,0,1,.12.9v1.71h3.77v0.74H10.76Zm3.5-.74v-1.68a2.61,2.61,0,0,0-.07-0.62,1.59,1.59,0,0,0-.24-0.54,1.23,1.23,0,0,0-.43-0.38,1.38,1.38,0,0,0-.66-0.15,1.3,1.3,0,0,0-.65.15,1.35,1.35,0,0,0-.44.39,1.59,1.59,0,0,0-.25.55,2.58,2.58,0,0,0-.08.63v1.64h2.83Z" transform="translate(-7.16 -6.65)" fill="#546238"/><path d="M10.76,250.77v-4.86h0.67V250h2.83v-3.86h0.67V250H18v-4.29h0.67v5H10.76Z" transform="translate(-7.16 -6.65)" fill="#546238"/><path d="M14.73,244.64a4.48,4.48,0,0,1-1.67-.3,4,4,0,0,1-1.32-.84,3.81,3.81,0,0,1-.87-1.29,4.57,4.57,0,0,1,0-3.33,3.81,3.81,0,0,1,.87-1.29,4,4,0,0,1,1.32-.84,4.78,4.78,0,0,1,3.35,0,3.94,3.94,0,0,1,1.32.84,3.75,3.75,0,0,1,.86,1.29,4.65,4.65,0,0,1,0,3.33,3.75,3.75,0,0,1-.86,1.29,3.94,3.94,0,0,1-1.32.84A4.53,4.53,0,0,1,14.73,244.64Zm0-.74a4,4,0,0,0,1.38-.24,3.27,3.27,0,0,0,1.11-.67,3.11,3.11,0,0,0,.74-1.06,3.75,3.75,0,0,0,0-2.79,3.12,3.12,0,0,0-.74-1.06,3.29,3.29,0,0,0-1.11-.67,4.16,4.16,0,0,0-2.76,0,3.28,3.28,0,0,0-1.11.67,3.12,3.12,0,0,0-.74,1.06,3.76,3.76,0,0,0,0,2.79,3.11,3.11,0,0,0,.74,1.06,3.27,3.27,0,0,0,1.11.67A4,4,0,0,0,14.73,243.9Z" transform="translate(-7.16 -6.65)" fill="#546238"/><path d="M10.76,234.77v-2.29a4.24,4.24,0,0,1,.1-0.87,2.52,2.52,0,0,1,.33-0.83,1.86,1.86,0,0,1,.64-0.62,2,2,0,0,1,1-.24,2.06,2.06,0,0,1,.93.2,1.82,1.82,0,0,1,.64.53,2.26,2.26,0,0,1,.38.76,3.26,3.26,0,0,1,.12.9V234h3.77v0.74H10.76Zm3.5-.74v-1.68a2.61,2.61,0,0,0-.07-0.62,1.59,1.59,0,0,0-.24-0.54,1.23,1.23,0,0,0-.43-0.38,1.38,1.38,0,0,0-.66-0.15,1.3,1.3,0,0,0-.65.15,1.35,1.35,0,0,0-.44.39,1.59,1.59,0,0,0-.25.55,2.58,2.58,0,0,0-.08.63V234h2.83Z" transform="translate(-7.16 -6.65)" fill="#546238"/><path d="M10.76,228.34V227.6H18v-3.7h0.67v4.44H10.76Z" transform="translate(-7.16 -6.65)" fill="#546238"/><path d="M10.76,222.73v-4.86h0.67V222h2.83v-3.86h0.67V222H18V217.7h0.67v5H10.76Z" transform="translate(-7.16 -6.65)" fill="#546238"/><path d="M10.76,211.07V210.3l7-2v0l-7-2v-0.94l7-2v0l-7-2v-0.76l7.94,2.31v0.91l-7.06,2v0l7.06,2v0.91Z" transform="translate(-7.16 -6.65)" fill="#546238"/><path d="M10.76,197.66v-0.76l7.94-3.34v0.83l-2.11.86v4.21l2.11,0.9v0.77Zm0.81-.35,4.35,1.85v-3.64Z" transform="translate(-7.16 -6.65)" fill="#546238"/><path d="M10.76,192.41v-0.74h7.94v0.74H10.76Z" transform="translate(-7.16 -6.65)" fill="#546238"/><path d="M11.43,187.73v2.71H10.76v-6.17h0.67V187h7.27v0.74H11.43Z" transform="translate(-7.16 -6.65)" fill="#546238"/><path d="M10.76,183.06v-0.74h7.94v0.74H10.76Z" transform="translate(-7.16 -6.65)" fill="#546238"/><path d="M10.76,180.14v-1l7-4.83v0h-7v-0.74h7.94v1l-7,4.83v0h7v0.74H10.76Z" transform="translate(-7.16 -6.65)" fill="#546238"/><path d="M18.18,164.87a5.13,5.13,0,0,1,.55,1.44,7.11,7.11,0,0,1,.16,1.52,4.37,4.37,0,0,1-.31,1.67,3.75,3.75,0,0,1-.86,1.29,3.94,3.94,0,0,1-1.32.84,4.78,4.78,0,0,1-3.35,0,4,4,0,0,1-1.32-.84,3.81,3.81,0,0,1-.87-1.29,4.31,4.31,0,0,1-.31-1.67,3.85,3.85,0,0,1,1.1-2.86l0.56,0.54a2.33,2.33,0,0,0-.4.44,3.07,3.07,0,0,0-.31.57,3.77,3.77,0,0,0-.2.65,3.13,3.13,0,0,0-.07.66,3.48,3.48,0,0,0,.27,1.4,3.11,3.11,0,0,0,.74,1.06,3.27,3.27,0,0,0,1.11.67,4.14,4.14,0,0,0,2.76,0,3.27,3.27,0,0,0,1.11-.67,3.11,3.11,0,0,0,.74-1.06,3.47,3.47,0,0,0,.27-1.4,6.77,6.77,0,0,0-.1-1.2,3.08,3.08,0,0,0-.37-1H15.08v1.91H14.41v-2.65h3.77Z" transform="translate(-7.16 -6.65)" fill="#546238"/><path d="M10.76,157.59V155.3a4.24,4.24,0,0,1,.1-0.87,2.52,2.52,0,0,1,.33-0.83,1.86,1.86,0,0,1,.64-0.62,2,2,0,0,1,1-.24,2.06,2.06,0,0,1,.93.2,1.82,1.82,0,0,1,.64.53,2.26,2.26,0,0,1,.38.76,3.26,3.26,0,0,1,.12.9v1.71h3.77v0.74H10.76Zm3.5-.74v-1.68a2.61,2.61,0,0,0-.07-0.62,1.59,1.59,0,0,0-.24-0.54,1.23,1.23,0,0,0-.43-0.38,1.38,1.38,0,0,0-.66-0.15,1.3,1.3,0,0,0-.65.15,1.35,1.35,0,0,0-.44.39,1.59,1.59,0,0,0-.25.55,2.58,2.58,0,0,0-.08.63v1.64h2.83Z" transform="translate(-7.16 -6.65)" fill="#546238"/><path d="M10.76,151.15V146.3h0.67v4.12h2.83v-3.86h0.67v3.86H18v-4.29h0.67v5H10.76Z" transform="translate(-7.16 -6.65)" fill="#546238"/><path d="M10.76,144.5v-2.08c0-.11,0-0.25,0-0.43a4.5,4.5,0,0,1,.07-0.58,3.57,3.57,0,0,1,.18-0.64,1.81,1.81,0,0,1,.36-0.58,1.88,1.88,0,0,1,.59-0.43,2.05,2.05,0,0,1,.88-0.17,2,2,0,0,1,.94.2,1.82,1.82,0,0,1,.6.49,2.08,2.08,0,0,1,.34.66,4.23,4.23,0,0,1,.16.68l3.81-2.31v0.84l-3.77,2.23v1.38h3.77v0.74H10.76Zm3.5-.74v-1.57a2.59,2.59,0,0,0-.15-0.95,1.57,1.57,0,0,0-.36-0.57,1.12,1.12,0,0,0-.46-0.27,1.41,1.41,0,0,0-.9,0,1.13,1.13,0,0,0-.46.27,1.57,1.57,0,0,0-.36.57,2.59,2.59,0,0,0-.15.95v1.57h2.83Z" transform="translate(-7.16 -6.65)" fill="#546238"/><path d="M12,135.4a0.77,0.77,0,1,1,.54-0.22A0.74,0.74,0,0,1,12,135.4Zm6.06,0a0.77,0.77,0,1,1,.54-0.22A0.74,0.74,0,0,1,18,135.4Z" transform="translate(-7.16 -6.65)" fill="#546238"/><path d="M8.7,124.2v0l1.68,2.05-0.74.59-2.29-2.8v-0.82H18.69v1H8.7Z" transform="translate(-7.16 -6.65)" fill="#546238"/><path d="M13,119.63q-0.61,0-1.29-.06a9,9,0,0,1-1.33-.21A6.66,6.66,0,0,1,9.17,119a3.79,3.79,0,0,1-1-.68,3.08,3.08,0,0,1-.71-1,3.77,3.77,0,0,1,0-2.77,3.09,3.09,0,0,1,.71-1,3.81,3.81,0,0,1,1-.68,6.73,6.73,0,0,1,1.23-.42,9.16,9.16,0,0,1,1.33-.21q0.68-.06,1.29-0.06t1.3,0.06a9.15,9.15,0,0,1,1.32.21,6.75,6.75,0,0,1,1.23.42,3.82,3.82,0,0,1,1,.68,3.08,3.08,0,0,1,.71,1,3.76,3.76,0,0,1,0,2.77,3.07,3.07,0,0,1-.71,1,3.8,3.8,0,0,1-1,.68,6.68,6.68,0,0,1-1.23.42,9,9,0,0,1-1.32.21Q13.65,119.63,13,119.63Zm0-1.06,1,0a9.67,9.67,0,0,0,1.09-.13,6.84,6.84,0,0,0,1.08-.28,3.62,3.62,0,0,0,.94-0.48,2.31,2.31,0,0,0,.66-0.73,2.29,2.29,0,0,0,0-2.07,2.29,2.29,0,0,0-.66-0.74,3.56,3.56,0,0,0-.94-0.48,6.74,6.74,0,0,0-1.08-.28,9.68,9.68,0,0,0-1.09-.13l-1,0-1,0a9.69,9.69,0,0,0-1.1.13,6.76,6.76,0,0,0-1.08.28,3.55,3.55,0,0,0-.94.48,2.29,2.29,0,0,0-.66.74,2.27,2.27,0,0,0,0,2.07,2.28,2.28,0,0,0,.66.74,3.61,3.61,0,0,0,.94.48,6.87,6.87,0,0,0,1.08.28,9.69,9.69,0,0,0,1.1.13Z" transform="translate(-7.16 -6.65)" fill="#546238"/><path d="M13,111.3q-0.61,0-1.29-.06A9,9,0,0,1,10.4,111a6.66,6.66,0,0,1-1.23-.42,3.79,3.79,0,0,1-1-.68,3.08,3.08,0,0,1-.71-1,3.77,3.77,0,0,1,0-2.77,3.09,3.09,0,0,1,.71-1,3.81,3.81,0,0,1,1-.68,6.73,6.73,0,0,1,1.23-.42,9.16,9.16,0,0,1,1.33-.21q0.68-.06,1.29-0.06t1.3,0.06a9.15,9.15,0,0,1,1.32.21,6.75,6.75,0,0,1,1.23.42,3.82,3.82,0,0,1,1,.68,3.08,3.08,0,0,1,.71,1,3.76,3.76,0,0,1,0,2.77,3.07,3.07,0,0,1-.71,1,3.8,3.8,0,0,1-1,.68,6.68,6.68,0,0,1-1.23.42,9,9,0,0,1-1.32.21Q13.65,111.31,13,111.3Zm0-1.06,1,0a9.67,9.67,0,0,0,1.09-.13,6.84,6.84,0,0,0,1.08-.28,3.62,3.62,0,0,0,.94-0.48,2.31,2.31,0,0,0,.66-0.73,2.29,2.29,0,0,0,0-2.07,2.29,2.29,0,0,0-.66-0.74,3.56,3.56,0,0,0-.94-0.48A6.74,6.74,0,0,0,15.1,105,9.68,9.68,0,0,0,14,104.9l-1,0-1,0a9.69,9.69,0,0,0-1.1.13,6.76,6.76,0,0,0-1.08.28,3.55,3.55,0,0,0-.94.48,2.29,2.29,0,0,0-.66.74,2.27,2.27,0,0,0,0,2.07,2.28,2.28,0,0,0,.66.74,3.61,3.61,0,0,0,.94.48,6.87,6.87,0,0,0,1.08.28,9.69,9.69,0,0,0,1.1.13Z" transform="translate(-7.16 -6.65)" fill="#546238"/><path d="M327.89,347.22L325,342.7h0.89l2.4,3.77,2.46-3.77h0.83l-2.92,4.52v3.42h-0.74v-3.42Z" transform="translate(-7.16 -6.65)" fill="#546238"/><path d="M332.5,342.7h4.86v0.67h-4.12v2.83h3.86v0.67h-3.86V350h4.29v0.67h-5V342.7Z" transform="translate(-7.16 -6.65)" fill="#546238"/><path d="M341.58,342.7h0.76l3.34,7.94h-0.83L344,348.53h-4.21l-0.9,2.11h-0.77Zm0.35,0.81-1.85,4.35h3.64Z" transform="translate(-7.16 -6.65)" fill="#546238"/><path d="M346.83,342.7h2.51a4.5,4.5,0,0,1,.58.07,3.57,3.57,0,0,1,.64.18,1.8,1.8,0,0,1,.58.36,1.87,1.87,0,0,1,.43.59,2,2,0,0,1,.17.87,2,2,0,0,1-.2.94,1.83,1.83,0,0,1-.49.6,2.06,2.06,0,0,1-.66.34,4.13,4.13,0,0,1-.68.16l2.31,3.81h-0.84l-2.23-3.77h-1.38v3.77h-0.74V342.7Zm0.74,3.5h1.57a2.6,2.6,0,0,0,.95-0.15,1.57,1.57,0,0,0,.57-0.36,1.12,1.12,0,0,0,.27-0.46,1.41,1.41,0,0,0,0-.9,1.13,1.13,0,0,0-.27-0.46,1.57,1.57,0,0,0-.57-0.36,2.58,2.58,0,0,0-.95-0.15h-1.57v2.83Z" transform="translate(-7.16 -6.65)" fill="#546238"/></g><path d="M48.21,267h0l-2.05,1.68-0.59-.74,2.8-2.29h0.82V277h-1V267Z" transform="translate(-7.16 -6.65)" fill="#546238"/><path d="M52.78,271.31q0-.61.06-1.29a9,9,0,0,1,.21-1.33,6.75,6.75,0,0,1,.42-1.23,3.83,3.83,0,0,1,.68-1,3.09,3.09,0,0,1,1-.71,3.77,3.77,0,0,1,2.77,0,3.1,3.1,0,0,1,1,.71,3.84,3.84,0,0,1,.68,1,6.75,6.75,0,0,1,.42,1.23,9.16,9.16,0,0,1,.21,1.33q0.06,0.68.06,1.29t-0.06,1.3a9.17,9.17,0,0,1-.21,1.32,6.7,6.7,0,0,1-.42,1.23,3.81,3.81,0,0,1-.68,1,3.07,3.07,0,0,1-1,.71,3.76,3.76,0,0,1-2.77,0,3.06,3.06,0,0,1-1-.71,3.8,3.8,0,0,1-.68-1,6.7,6.7,0,0,1-.42-1.23,9,9,0,0,1-.21-1.32Q52.78,271.93,52.78,271.31Zm1.06,0q0,0.45,0,1a9.7,9.7,0,0,0,.13,1.09,6.87,6.87,0,0,0,.28,1.08,3.6,3.6,0,0,0,.48.94,2.33,2.33,0,0,0,.73.66,2.29,2.29,0,0,0,2.07,0,2.3,2.3,0,0,0,.74-0.66,3.62,3.62,0,0,0,.48-0.94,6.87,6.87,0,0,0,.28-1.08,9.81,9.81,0,0,0,.13-1.09q0-.54,0-1t0-1a9.79,9.79,0,0,0-.13-1.1,6.87,6.87,0,0,0-.28-1.08,3.62,3.62,0,0,0-.48-0.94,2.31,2.31,0,0,0-.74-0.66,2.28,2.28,0,0,0-2.07,0,2.3,2.3,0,0,0-.74.66,3.61,3.61,0,0,0-.48.94,6.87,6.87,0,0,0-.28,1.08,9.67,9.67,0,0,0-.13,1.1Q53.84,270.88,53.84,271.31Z" transform="translate(-7.16 -6.65)" fill="#546238"/><path d="M44.69,235.28l4.26-4.5q0.29-.29.58-0.62a5.85,5.85,0,0,0,.52-0.69,3.78,3.78,0,0,0,.38-0.76,2.55,2.55,0,0,0,.14-0.87,2,2,0,0,0-.64-1.55,2.37,2.37,0,0,0-1.62-.56,2.24,2.24,0,0,0-1.49.51,2.34,2.34,0,0,0-.78,1.35l-1.12-.11a3,3,0,0,1,1.2-2,3.82,3.82,0,0,1,2.24-.65,3.87,3.87,0,0,1,1.25.2,3.29,3.29,0,0,1,1,.57,2.67,2.67,0,0,1,1,2.13,3.59,3.59,0,0,1-.2,1.22,5.09,5.09,0,0,1-.53,1.07,6.64,6.64,0,0,1-.75,1l-0.86.9-3.54,3.64h6v0.87h-7v-1.12Z" transform="translate(-7.16 -6.65)" fill="#546238"/><path d="M52.78,230.73q0-.61.06-1.29a9,9,0,0,1,.21-1.33,6.75,6.75,0,0,1,.42-1.23,3.83,3.83,0,0,1,.68-1,3.09,3.09,0,0,1,1-.71,3.77,3.77,0,0,1,2.77,0,3.1,3.1,0,0,1,1,.71,3.84,3.84,0,0,1,.68,1,6.75,6.75,0,0,1,.42,1.23,9.16,9.16,0,0,1,.21,1.33q0.06,0.68.06,1.29T60.22,232a9.17,9.17,0,0,1-.21,1.32,6.7,6.7,0,0,1-.42,1.23,3.81,3.81,0,0,1-.68,1,3.07,3.07,0,0,1-1,.71,3.76,3.76,0,0,1-2.77,0,3.06,3.06,0,0,1-1-.71,3.8,3.8,0,0,1-.68-1,6.7,6.7,0,0,1-.42-1.23,9,9,0,0,1-.21-1.32Q52.78,231.36,52.78,230.73Zm1.06,0q0,0.45,0,1a9.7,9.7,0,0,0,.13,1.09,6.87,6.87,0,0,0,.28,1.08,3.6,3.6,0,0,0,.48.94,2.33,2.33,0,0,0,.73.66,2.29,2.29,0,0,0,2.07,0,2.3,2.3,0,0,0,.74-0.66,3.62,3.62,0,0,0,.48-0.94,6.87,6.87,0,0,0,.28-1.08,9.81,9.81,0,0,0,.13-1.09q0-.54,0-1t0-1a9.79,9.79,0,0,0-.13-1.1,6.87,6.87,0,0,0-.28-1.08,3.62,3.62,0,0,0-.48-0.94,2.31,2.31,0,0,0-.74-0.66,2.28,2.28,0,0,0-2.07,0,2.3,2.3,0,0,0-.74.66,3.61,3.61,0,0,0-.48.94,6.87,6.87,0,0,0-.28,1.08,9.67,9.67,0,0,0-.13,1.1Q53.84,230.3,53.84,230.73Z" transform="translate(-7.16 -6.65)" fill="#546238"/><path d="M45.73,193.46a2.94,2.94,0,0,0,.87,1.26,2.36,2.36,0,0,0,1.51.44,3,3,0,0,0,1.1-.19,2.15,2.15,0,0,0,.79-0.53,2.26,2.26,0,0,0,.47-0.79,2.84,2.84,0,0,0,.16-1,2.08,2.08,0,0,0-.26-1.07,2.2,2.2,0,0,0-.69-0.73,3,3,0,0,0-1-.41,4.67,4.67,0,0,0-1.08-.13H47.24v-1h0.48a3.55,3.55,0,0,0,.91-0.12,2.47,2.47,0,0,0,.82-0.38,1.94,1.94,0,0,0,.58-0.66,2,2,0,0,0,.22-1,2.06,2.06,0,0,0-.57-1.5,2,2,0,0,0-1.53-.58,2.29,2.29,0,0,0-1.27.36,2.53,2.53,0,0,0-.88,1L45.09,186a2.87,2.87,0,0,1,1.27-1.28,4.16,4.16,0,0,1,3-.22,3,3,0,0,1,1,.54,2.51,2.51,0,0,1,.68.91,3.06,3.06,0,0,1,.25,1.28,2.74,2.74,0,0,1-.51,1.64,2.64,2.64,0,0,1-1.51,1v0a2.88,2.88,0,0,1,1,.36,3,3,0,0,1,.76.65,2.92,2.92,0,0,1,.5.87,3,3,0,0,1,.18,1,3.67,3.67,0,0,1-.22,1.27,2.8,2.8,0,0,1-.66,1,3.13,3.13,0,0,1-1.1.7,4.22,4.22,0,0,1-1.54.26,4.12,4.12,0,0,1-2.17-.54,3.27,3.27,0,0,1-1.34-1.69Z" transform="translate(-7.16 -6.65)" fill="#546238"/><path d="M52.78,190.16q0-.61.06-1.29a9,9,0,0,1,.21-1.33,6.75,6.75,0,0,1,.42-1.23,3.83,3.83,0,0,1,.68-1,3.09,3.09,0,0,1,1-.71,3.77,3.77,0,0,1,2.77,0,3.1,3.1,0,0,1,1,.71,3.84,3.84,0,0,1,.68,1,6.75,6.75,0,0,1,.42,1.23,9.16,9.16,0,0,1,.21,1.33q0.06,0.68.06,1.29t-0.06,1.3a9.17,9.17,0,0,1-.21,1.32,6.7,6.7,0,0,1-.42,1.23,3.81,3.81,0,0,1-.68,1,3.07,3.07,0,0,1-1,.71,3.76,3.76,0,0,1-2.77,0,3.06,3.06,0,0,1-1-.71,3.8,3.8,0,0,1-.68-1,6.7,6.7,0,0,1-.42-1.23,9,9,0,0,1-.21-1.32Q52.78,190.78,52.78,190.16Zm1.06,0q0,0.45,0,1a9.7,9.7,0,0,0,.13,1.09,6.87,6.87,0,0,0,.28,1.08,3.6,3.6,0,0,0,.48.94,2.33,2.33,0,0,0,.73.66,2.29,2.29,0,0,0,2.07,0,2.3,2.3,0,0,0,.74-0.66,3.62,3.62,0,0,0,.48-0.94,6.87,6.87,0,0,0,.28-1.08,9.81,9.81,0,0,0,.13-1.09q0-.54,0-1t0-1a9.79,9.79,0,0,0-.13-1.1,6.87,6.87,0,0,0-.28-1.08,3.62,3.62,0,0,0-.48-0.94,2.31,2.31,0,0,0-.74-0.66,2.28,2.28,0,0,0-2.07,0,2.3,2.3,0,0,0-.74.66,3.61,3.61,0,0,0-.48.94,6.87,6.87,0,0,0-.28,1.08,9.67,9.67,0,0,0-.13,1.1Q53.84,189.73,53.84,190.16Z" transform="translate(-7.16 -6.65)" fill="#546238"/><path d="M49.3,152.46H44.4v-1.14l4.53-7.42h1.33v7.69H52v0.87H50.26v2.79h-1v-2.79Zm0-7.5h0l-4,6.63h4V145Z" transform="translate(-7.16 -6.65)" fill="#546238"/><path d="M52.78,149.58q0-.61.06-1.29A9,9,0,0,1,53,147a6.75,6.75,0,0,1,.42-1.23,3.83,3.83,0,0,1,.68-1,3.09,3.09,0,0,1,1-.71,3.77,3.77,0,0,1,2.77,0,3.1,3.1,0,0,1,1,.71,3.84,3.84,0,0,1,.68,1A6.75,6.75,0,0,1,60,147a9.16,9.16,0,0,1,.21,1.33q0.06,0.68.06,1.29t-0.06,1.3A9.17,9.17,0,0,1,60,152.2a6.7,6.7,0,0,1-.42,1.23,3.81,3.81,0,0,1-.68,1,3.07,3.07,0,0,1-1,.71,3.76,3.76,0,0,1-2.77,0,3.06,3.06,0,0,1-1-.71,3.8,3.8,0,0,1-.68-1A6.7,6.7,0,0,1,53,152.2a9,9,0,0,1-.21-1.32Q52.78,150.21,52.78,149.58Zm1.06,0q0,0.45,0,1a9.7,9.7,0,0,0,.13,1.09,6.87,6.87,0,0,0,.28,1.08,3.6,3.6,0,0,0,.48.94,2.33,2.33,0,0,0,.73.66,2.29,2.29,0,0,0,2.07,0,2.3,2.3,0,0,0,.74-0.66,3.62,3.62,0,0,0,.48-0.94,6.87,6.87,0,0,0,.28-1.08,9.81,9.81,0,0,0,.13-1.09q0-.54,0-1t0-1a9.79,9.79,0,0,0-.13-1.1,6.87,6.87,0,0,0-.28-1.08,3.62,3.62,0,0,0-.48-0.94,2.31,2.31,0,0,0-.74-0.66,2.28,2.28,0,0,0-2.07,0,2.3,2.3,0,0,0-.74.66,3.61,3.61,0,0,0-.48.94,6.87,6.87,0,0,0-.28,1.08,9.67,9.67,0,0,0-.13,1.1Q53.84,149.15,53.84,149.58Z" transform="translate(-7.16 -6.65)" fill="#546238"/><path d="M51.24,104.2H46.56l0,3.6a2.51,2.51,0,0,1,.8-0.26,5.79,5.79,0,0,1,.85-0.06,3.5,3.5,0,0,1,1.47.3,3.3,3.3,0,0,1,1.11.81,3.66,3.66,0,0,1,.71,1.19,4.18,4.18,0,0,1,.25,1.45,3.69,3.69,0,0,1-.33,1.6,3.37,3.37,0,0,1-.86,1.14,3.65,3.65,0,0,1-1.17.67,3.82,3.82,0,0,1-1.27.22,4,4,0,0,1-2.09-.51,3.5,3.5,0,0,1-1.31-1.41l1-.5a2.35,2.35,0,0,0,.39.6,3,3,0,0,0,.57.5,2.77,2.77,0,0,0,.69.34,2.41,2.41,0,0,0,.75.12,2.38,2.38,0,0,0,.83-0.17,2.7,2.7,0,0,0,1.47-1.35,2.62,2.62,0,0,0,.26-1.19,3,3,0,0,0-.22-1.15,2.9,2.9,0,0,0-.6-0.94,2.83,2.83,0,0,0-.91-0.63,2.73,2.73,0,0,0-1.13-.23,3.36,3.36,0,0,0-1.19.22,4.76,4.76,0,0,0-1.06.55l0.09-5.78h5.59v0.86Z" transform="translate(-7.16 -6.65)" fill="#546238"/><path d="M52.78,109q0-.61.06-1.29a9,9,0,0,1,.21-1.33,6.75,6.75,0,0,1,.42-1.23,3.83,3.83,0,0,1,.68-1,3.09,3.09,0,0,1,1-.71,3.77,3.77,0,0,1,2.77,0,3.1,3.1,0,0,1,1,.71,3.84,3.84,0,0,1,.68,1,6.75,6.75,0,0,1,.42,1.23,9.16,9.16,0,0,1,.21,1.33q0.06,0.68.06,1.29t-0.06,1.3a9.17,9.17,0,0,1-.21,1.32,6.7,6.7,0,0,1-.42,1.23,3.81,3.81,0,0,1-.68,1,3.07,3.07,0,0,1-1,.71,3.76,3.76,0,0,1-2.77,0,3.06,3.06,0,0,1-1-.71,3.8,3.8,0,0,1-.68-1,6.7,6.7,0,0,1-.42-1.23,9,9,0,0,1-.21-1.32Q52.78,109.63,52.78,109Zm1.06,0q0,0.45,0,1a9.7,9.7,0,0,0,.13,1.09,6.87,6.87,0,0,0,.28,1.08,3.6,3.6,0,0,0,.48.94,2.33,2.33,0,0,0,.73.66,2.29,2.29,0,0,0,2.07,0,2.3,2.3,0,0,0,.74-0.66,3.62,3.62,0,0,0,.48-0.94,6.87,6.87,0,0,0,.28-1.08,9.81,9.81,0,0,0,.13-1.09q0-.54,0-1t0-1a9.79,9.79,0,0,0-.13-1.1,6.87,6.87,0,0,0-.28-1.08,3.62,3.62,0,0,0-.48-0.94,2.31,2.31,0,0,0-.74-0.66,2.28,2.28,0,0,0-2.07,0,2.3,2.3,0,0,0-.74.66,3.61,3.61,0,0,0-.48.94,6.87,6.87,0,0,0-.28,1.08,9.67,9.67,0,0,0-.13,1.1Q53.84,108.58,53.84,109Z" transform="translate(-7.16 -6.65)" fill="#546238"/><path d="M46.72,66.41h0a1.91,1.91,0,0,1,.78-0.36,3.81,3.81,0,0,1,.91-0.12,3.53,3.53,0,0,1,1.39.27,3.34,3.34,0,0,1,1.83,1.85,3.62,3.62,0,0,1,.26,1.37,3.54,3.54,0,0,1-.28,1.42A3.29,3.29,0,0,1,50.86,72a3.62,3.62,0,0,1-1.18.73,4.28,4.28,0,0,1-3,0A3.61,3.61,0,0,1,45.54,72a3.29,3.29,0,0,1-.78-1.11,3.54,3.54,0,0,1-.28-1.42,3.63,3.63,0,0,1,.1-0.85,4.42,4.42,0,0,1,.26-0.76c0.11-.24.22-0.47,0.34-0.68s0.23-.42.35-0.61l3.08-5.11h1.22Zm1.47,0.35a2.59,2.59,0,0,0-1,.21,2.66,2.66,0,0,0-1.41,1.42,2.61,2.61,0,0,0-.21,1,2.93,2.93,0,0,0,.19,1.08,2.39,2.39,0,0,0,1.39,1.39,3.13,3.13,0,0,0,2.16,0,2.39,2.39,0,0,0,1.39-1.39,2.93,2.93,0,0,0,.19-1.08,2.61,2.61,0,0,0-.21-1A2.63,2.63,0,0,0,49.23,67,2.61,2.61,0,0,0,48.2,66.77Z" transform="translate(-7.16 -6.65)" fill="#546238"/><path d="M52.78,67.09q0-.61.06-1.29A9,9,0,0,1,53,64.47a6.75,6.75,0,0,1,.42-1.23,3.83,3.83,0,0,1,.68-1,3.09,3.09,0,0,1,1-.71,3.77,3.77,0,0,1,2.77,0,3.1,3.1,0,0,1,1,.71,3.84,3.84,0,0,1,.68,1A6.75,6.75,0,0,1,60,64.47a9.16,9.16,0,0,1,.21,1.33q0.06,0.68.06,1.29t-0.06,1.3A9.17,9.17,0,0,1,60,69.71a6.7,6.7,0,0,1-.42,1.23,3.81,3.81,0,0,1-.68,1,3.07,3.07,0,0,1-1,.71,3.76,3.76,0,0,1-2.77,0,3.06,3.06,0,0,1-1-.71,3.8,3.8,0,0,1-.68-1A6.7,6.7,0,0,1,53,69.71a9,9,0,0,1-.21-1.32Q52.78,67.71,52.78,67.09Zm1.06,0q0,0.45,0,1A9.7,9.7,0,0,0,54,69.16a6.87,6.87,0,0,0,.28,1.08,3.6,3.6,0,0,0,.48.94,2.33,2.33,0,0,0,.73.66,2.29,2.29,0,0,0,2.07,0,2.3,2.3,0,0,0,.74-0.66,3.62,3.62,0,0,0,.48-0.94,6.87,6.87,0,0,0,.28-1.08,9.81,9.81,0,0,0,.13-1.09q0-.54,0-1t0-1a9.79,9.79,0,0,0-.13-1.1,6.87,6.87,0,0,0-.28-1.08A3.62,3.62,0,0,0,58.3,63a2.31,2.31,0,0,0-.74-0.66,2.28,2.28,0,0,0-2.07,0,2.3,2.3,0,0,0-.74.66,3.61,3.61,0,0,0-.48.94A6.87,6.87,0,0,0,54,65a9.67,9.67,0,0,0-.13,1.1Q53.84,66.65,53.84,67.09Z" transform="translate(-7.16 -6.65)" fill="#546238"/><path d="M51.13,21.71L46.61,32.18H45.54l4.6-10.48H44.69V20.84h6.44v0.86Z" transform="translate(-7.16 -6.65)" fill="#546238"/><path d="M52.78,26.51q0-.61.06-1.29A9,9,0,0,1,53,23.89a6.75,6.75,0,0,1,.42-1.23,3.83,3.83,0,0,1,.68-1,3.09,3.09,0,0,1,1-.71,3.77,3.77,0,0,1,2.77,0,3.1,3.1,0,0,1,1,.71,3.84,3.84,0,0,1,.68,1A6.75,6.75,0,0,1,60,23.89a9.16,9.16,0,0,1,.21,1.33q0.06,0.68.06,1.29t-0.06,1.3A9.17,9.17,0,0,1,60,29.13a6.7,6.7,0,0,1-.42,1.23,3.81,3.81,0,0,1-.68,1,3.07,3.07,0,0,1-1,.71,3.76,3.76,0,0,1-2.77,0,3.06,3.06,0,0,1-1-.71,3.8,3.8,0,0,1-.68-1A6.7,6.7,0,0,1,53,29.13a9,9,0,0,1-.21-1.32Q52.78,27.14,52.78,26.51Zm1.06,0q0,0.45,0,1A9.7,9.7,0,0,0,54,28.59a6.87,6.87,0,0,0,.28,1.08,3.6,3.6,0,0,0,.48.94,2.33,2.33,0,0,0,.73.66,2.29,2.29,0,0,0,2.07,0,2.3,2.3,0,0,0,.74-0.66,3.62,3.62,0,0,0,.48-0.94,6.87,6.87,0,0,0,.28-1.08,9.81,9.81,0,0,0,.13-1.09q0-.54,0-1t0-1a9.79,9.79,0,0,0-.13-1.1,6.87,6.87,0,0,0-.28-1.08,3.62,3.62,0,0,0-.48-0.94,2.31,2.31,0,0,0-.74-0.66,2.28,2.28,0,0,0-2.07,0,2.3,2.3,0,0,0-.74.66,3.61,3.61,0,0,0-.48.94A6.87,6.87,0,0,0,54,24.44a9.67,9.67,0,0,0-.13,1.1Q53.84,26.08,53.84,26.51Z" transform="translate(-7.16 -6.65)" fill="#546238"/><line x1="56.55" y1="61.39" x2="71.63" y2="61.39" fill="none" stroke="#546238"/><line x1="56.55" y1="184.29" x2="71.63" y2="184.29" fill="none" stroke="#546238"/><line x1="56.55" y1="266.23" x2="71.63" y2="266.23" fill="none" stroke="#546238"/><line x1="550.02" y1="274.68" x2="548.45" y2="273.11" fill="none" stroke="#59692e" stroke-width="5"/><line x1="557.98" y1="271.29" x2="553.87" y2="275.39" fill="none" stroke="#59692e" stroke-width="5"/><g clip-path="url(#clip-path)"><path d="M566.23,276s-2.8,2.05-1,3.89c0,0,9,2.42,9.5,4.55,1.22,0.56,7.76-1.79,8.5,1.41a14.1,14.1,0,0,0-3.78-8.12,5.43,5.43,0,0,1-1.61-4.62s-3.61-7.38-10.67-4.91c-1.69,1-2.66,1.46-.92,7.81" transform="translate(-7.16 -6.65)" fill="#59692e"/><path d="M548,270.74s-3-2.4-4.41.06c0,0,.29,10.39-1.81,11.55-0.21,1.48,4.33,7.81,1.19,9.55a15.08,15.08,0,0,0,7.36-6.46,5.79,5.79,0,0,1,4.36-3.1s6.64-6.06,1.82-12.91c-1.53-1.53-2.37-2.43-8.51,1.31" transform="translate(-7.16 -6.65)" fill="#59692e"/><path d="M565.72,287.63s3.55-.21,3.29,2.36c0,0-5.71,7.66-4.75,9.63-0.62,1.22-7.39,3.6-5.95,6.56a13.76,13.76,0,0,1-2.12-8.72,5.28,5.28,0,0,0-1.64-4.61s-1.79-8,5.47-10.66c2-.35,3.07-0.58,5.71,5.45" transform="translate(-7.16 -6.65)" fill="#59692e"/><path d="M562.43,266.6s-0.42,1.44.71,1.67c0,0,3.82-1.33,4.58-.68,0.58-.09,2.23-2.57,3.37-1.58a6.84,6.84,0,0,0-3.55-2,2.65,2.65,0,0,1-1.83-1.29s-3.29-1.81-5.09.84c-0.33.76-.53,1.19,1.81,3.08" transform="translate(-7.16 -6.65)" fill="#59692e"/><path d="M557.32,263s-0.74-1.28-1.59-.6c0,0-1.41,3.71-2.33,3.82-0.29.49,0.41,3.37-1,3.54a5.91,5.91,0,0,0,3.58-1.24,2.27,2.27,0,0,1,2-.48s3.26-1.2,2.53-4.31c-0.33-.76-0.5-1.19-3.24-0.74" transform="translate(-7.16 -6.65)" fill="#59692e"/></g><line x1="552.7" y1="258.57" x2="555.23" y2="281.36" fill="none" stroke="#59692e" stroke-width="5"/><line x1="550.02" y1="231.47" x2="548.45" y2="229.9" fill="none" stroke="#59692e" stroke-width="5"/><line x1="557.98" y1="228.08" x2="553.87" y2="232.18" fill="none" stroke="#59692e" stroke-width="5"/><g clip-path="url(#clip-path)"><path d="M566.23,232.8s-2.8,2.05-1,3.89c0,0,9,2.42,9.5,4.55,1.22,0.56,7.76-1.79,8.5,1.41a14.1,14.1,0,0,0-3.78-8.12,5.43,5.43,0,0,1-1.61-4.62s-3.61-7.38-10.67-4.91c-1.69,1-2.66,1.46-.92,7.81" transform="translate(-7.16 -6.65)" fill="#59692e"/><path d="M548,227.53s-3-2.4-4.41.06c0,0,.29,10.39-1.81,11.55-0.21,1.48,4.33,7.81,1.19,9.55a15.08,15.08,0,0,0,7.36-6.46,5.79,5.79,0,0,1,4.36-3.1s6.64-6.06,1.82-12.91c-1.53-1.53-2.37-2.43-8.51,1.31" transform="translate(-7.16 -6.65)" fill="#59692e"/><path d="M565.72,244.42s3.55-.21,3.29,2.36c0,0-5.71,7.66-4.75,9.63-0.62,1.22-7.39,3.6-5.95,6.56a13.76,13.76,0,0,1-2.12-8.72,5.28,5.28,0,0,0-1.64-4.61s-1.79-8,5.47-10.66c2-.35,3.07-0.58,5.71,5.45" transform="translate(-7.16 -6.65)" fill="#59692e"/><path d="M562.43,223.39s-0.42,1.44.71,1.67c0,0,3.82-1.33,4.58-.68,0.58-.09,2.23-2.57,3.37-1.58a6.84,6.84,0,0,0-3.55-2,2.65,2.65,0,0,1-1.83-1.29s-3.29-1.81-5.09.84c-0.33.76-.53,1.19,1.81,3.08" transform="translate(-7.16 -6.65)" fill="#59692e"/><path d="M557.32,219.79s-0.74-1.28-1.59-.6c0,0-1.41,3.71-2.33,3.82-0.29.49,0.41,3.37-1,3.54a5.91,5.91,0,0,0,3.58-1.24,2.27,2.27,0,0,1,2-.48s3.26-1.2,2.53-4.31c-0.33-.76-0.5-1.19-3.24-0.74" transform="translate(-7.16 -6.65)" fill="#59692e"/></g><line x1="552.7" y1="215.36" x2="555.23" y2="238.15" fill="none" stroke="#59692e" stroke-width="5"/><line x1="550.02" y1="188.34" x2="548.45" y2="186.77" fill="none" stroke="#59692e" stroke-width="5"/><line x1="557.98" y1="184.94" x2="553.87" y2="189.05" fill="none" stroke="#59692e" stroke-width="5"/><g clip-path="url(#clip-path)"><path d="M566.23,189.67s-2.8,2.05-1,3.89c0,0,9,2.42,9.5,4.55,1.22,0.56,7.76-1.79,8.5,1.41a14.1,14.1,0,0,0-3.78-8.12,5.43,5.43,0,0,1-1.61-4.62s-3.61-7.38-10.67-4.91c-1.69,1-2.66,1.46-.92,7.81" transform="translate(-7.16 -6.65)" fill="#59692e"/><path d="M548,184.4s-3-2.4-4.41.06c0,0,.29,10.39-1.81,11.55-0.21,1.48,4.33,7.81,1.19,9.55a15.08,15.08,0,0,0,7.36-6.46,5.79,5.79,0,0,1,4.36-3.1s6.64-6.06,1.82-12.91c-1.53-1.53-2.37-2.43-8.51,1.31" transform="translate(-7.16 -6.65)" fill="#59692e"/><path d="M565.72,201.28s3.55-.21,3.29,2.36c0,0-5.71,7.66-4.75,9.63-0.62,1.22-7.39,3.6-5.95,6.56a13.76,13.76,0,0,1-2.12-8.72,5.28,5.28,0,0,0-1.64-4.61s-1.79-8,5.47-10.66c2-.35,3.07-0.58,5.71,5.45" transform="translate(-7.16 -6.65)" fill="#59692e"/><path d="M562.43,180.26s-0.42,1.44.71,1.67c0,0,3.82-1.33,4.58-.68,0.58-.09,2.23-2.57,3.37-1.58a6.84,6.84,0,0,0-3.55-2,2.65,2.65,0,0,1-1.83-1.29s-3.29-1.81-5.09.84c-0.33.76-.53,1.19,1.81,3.08" transform="translate(-7.16 -6.65)" fill="#59692e"/><path d="M557.32,176.66s-0.74-1.28-1.59-.6c0,0-1.41,3.71-2.33,3.82-0.29.49,0.41,3.37-1,3.54a5.91,5.91,0,0,0,3.58-1.24,2.27,2.27,0,0,1,2-.48s3.26-1.2,2.53-4.31c-0.33-.76-0.5-1.19-3.24-0.74" transform="translate(-7.16 -6.65)" fill="#59692e"/></g><line x1="552.7" y1="172.23" x2="555.23" y2="195.01" fill="none" stroke="#59692e" stroke-width="5"/><line x1="550.02" y1="143.86" x2="548.45" y2="142.29" fill="none" stroke="#59692e" stroke-width="5"/><line x1="557.98" y1="140.46" x2="553.87" y2="144.57" fill="none" stroke="#59692e" stroke-width="5"/><g clip-path="url(#clip-path)"><path d="M566.23,145.19s-2.8,2.05-1,3.89c0,0,9,2.42,9.5,4.55,1.22,0.56,7.76-1.79,8.5,1.41a14.1,14.1,0,0,0-3.78-8.12,5.43,5.43,0,0,1-1.61-4.62s-3.61-7.38-10.67-4.91c-1.69,1-2.66,1.46-.92,7.81" transform="translate(-7.16 -6.65)" fill="#59692e"/><path d="M548,139.92s-3-2.4-4.41.06c0,0,.29,10.39-1.81,11.55-0.21,1.48,4.33,7.81,1.19,9.55a15.08,15.08,0,0,0,7.36-6.46,5.79,5.79,0,0,1,4.36-3.1s6.64-6.06,1.82-12.91c-1.53-1.53-2.37-2.43-8.51,1.31" transform="translate(-7.16 -6.65)" fill="#59692e"/><path d="M565.72,156.8s3.55-.21,3.29,2.36c0,0-5.71,7.66-4.75,9.63-0.62,1.22-7.39,3.6-5.95,6.56a13.76,13.76,0,0,1-2.12-8.72,5.28,5.28,0,0,0-1.64-4.61s-1.79-8,5.47-10.66c2-.35,3.07-0.58,5.71,5.45" transform="translate(-7.16 -6.65)" fill="#59692e"/><path d="M562.43,135.77s-0.42,1.44.71,1.67c0,0,3.82-1.33,4.58-.68,0.58-.09,2.23-2.57,3.37-1.58a6.84,6.84,0,0,0-3.55-2,2.65,2.65,0,0,1-1.83-1.29s-3.29-1.81-5.09.84c-0.33.76-.53,1.19,1.81,3.08" transform="translate(-7.16 -6.65)" fill="#59692e"/><path d="M557.32,132.18s-0.74-1.28-1.59-.6c0,0-1.41,3.71-2.33,3.82-0.29.49,0.41,3.37-1,3.54A5.91,5.91,0,0,0,556,137.7a2.27,2.27,0,0,1,2-.48s3.26-1.2,2.53-4.31c-0.33-.76-0.5-1.19-3.24-0.74" transform="translate(-7.16 -6.65)" fill="#59692e"/></g><line x1="552.7" y1="127.75" x2="555.23" y2="150.53" fill="none" stroke="#59692e" stroke-width="5"/><line x1="550.02" y1="100.22" x2="548.45" y2="98.65" fill="none" stroke="#59692e" stroke-width="5"/><line x1="557.98" y1="96.82" x2="553.87" y2="100.93" fill="none" stroke="#59692e" stroke-width="5"/><g clip-path="url(#clip-path)"><path d="M566.23,101.55s-2.8,2.05-1,3.89c0,0,9,2.42,9.5,4.55,1.22,0.56,7.76-1.79,8.5,1.41a14.1,14.1,0,0,0-3.78-8.12,5.43,5.43,0,0,1-1.61-4.62s-3.61-7.38-10.67-4.91c-1.69,1-2.66,1.46-.92,7.81" transform="translate(-7.16 -6.65)" fill="#59692e"/><path d="M548,96.28s-3-2.4-4.41.06c0,0,.29,10.39-1.81,11.55-0.21,1.48,4.33,7.81,1.19,9.55a15.08,15.08,0,0,0,7.36-6.46,5.79,5.79,0,0,1,4.36-3.1s6.64-6.06,1.82-12.91c-1.53-1.53-2.37-2.43-8.51,1.31" transform="translate(-7.16 -6.65)" fill="#59692e"/><path d="M565.72,113.16s3.55-.21,3.29,2.36c0,0-5.71,7.66-4.75,9.63-0.62,1.22-7.39,3.6-5.95,6.56a13.76,13.76,0,0,1-2.12-8.72,5.28,5.28,0,0,0-1.64-4.61s-1.79-8,5.47-10.66c2-.35,3.07-0.58,5.71,5.45" transform="translate(-7.16 -6.65)" fill="#59692e"/><path d="M562.43,92.14s-0.42,1.44.71,1.67c0,0,3.82-1.33,4.58-.68,0.58-.09,2.23-2.57,3.37-1.58a6.84,6.84,0,0,0-3.55-2,2.65,2.65,0,0,1-1.83-1.29s-3.29-1.81-5.09.84c-0.33.76-.53,1.19,1.81,3.08" transform="translate(-7.16 -6.65)" fill="#59692e"/><path d="M557.32,88.54s-0.74-1.28-1.59-.6c0,0-1.41,3.71-2.33,3.82-0.29.49,0.41,3.37-1,3.54A5.91,5.91,0,0,0,556,94.06a2.27,2.27,0,0,1,2-.48s3.26-1.2,2.53-4.31c-0.33-.76-0.5-1.19-3.24-0.74" transform="translate(-7.16 -6.65)" fill="#59692e"/></g><line x1="552.7" y1="84.11" x2="555.23" y2="106.89" fill="none" stroke="#59692e" stroke-width="5"/><line x1="473.06" y1="272.97" x2="471.49" y2="271.4" fill="none" stroke="#59692e" stroke-width="5"/><line x1="481.02" y1="269.58" x2="476.92" y2="273.68" fill="none" stroke="#59692e" stroke-width="5"/><g clip-path="url(#clip-path)"><path d="M489.27,274.31s-2.8,2.05-1,3.89c0,0,9,2.42,9.5,4.55,1.22,0.56,7.76-1.79,8.5,1.41a14.1,14.1,0,0,0-3.78-8.12,5.43,5.43,0,0,1-1.61-4.62s-3.61-7.38-10.67-4.91c-1.69,1-2.66,1.46-.92,7.81" transform="translate(-7.16 -6.65)" fill="#59692e"/><path d="M471.08,269s-3-2.4-4.41.06c0,0,.29,10.39-1.81,11.55-0.21,1.48,4.33,7.81,1.19,9.55a15.08,15.08,0,0,0,7.36-6.46,5.79,5.79,0,0,1,4.36-3.1s6.64-6.06,1.82-12.91c-1.53-1.53-2.37-2.43-8.51,1.31" transform="translate(-7.16 -6.65)" fill="#59692e"/><path d="M488.77,285.92s3.55-.21,3.29,2.36c0,0-5.71,7.66-4.75,9.63-0.62,1.22-7.39,3.6-5.95,6.56a13.76,13.76,0,0,1-2.12-8.72,5.28,5.28,0,0,0-1.64-4.61s-1.79-8,5.47-10.66c2-.35,3.07-0.58,5.71,5.45" transform="translate(-7.16 -6.65)" fill="#59692e"/><path d="M485.48,264.89s-0.42,1.44.71,1.67c0,0,3.82-1.33,4.58-.68,0.58-.09,2.23-2.57,3.37-1.58a6.84,6.84,0,0,0-3.55-2,2.65,2.65,0,0,1-1.83-1.29s-3.29-1.81-5.09.84c-0.33.76-.53,1.19,1.81,3.08" transform="translate(-7.16 -6.65)" fill="#59692e"/><path d="M480.37,261.29s-0.74-1.28-1.59-.6c0,0-1.41,3.71-2.33,3.82-0.29.49,0.41,3.37-1,3.54a5.91,5.91,0,0,0,3.58-1.24,2.27,2.27,0,0,1,2-.48s3.26-1.2,2.53-4.31c-0.33-.76-0.5-1.19-3.24-0.74" transform="translate(-7.16 -6.65)" fill="#59692e"/></g><line x1="475.74" y1="256.86" x2="478.27" y2="279.65" fill="none" stroke="#59692e" stroke-width="5"/><line x1="473.06" y1="228.43" x2="471.49" y2="226.85" fill="none" stroke="#59692e" stroke-width="5"/><line x1="481.02" y1="225.03" x2="476.92" y2="229.13" fill="none" stroke="#59692e" stroke-width="5"/><g clip-path="url(#clip-path)"><path d="M489.27,229.76s-2.8,2.05-1,3.89c0,0,9,2.42,9.5,4.55,1.22,0.56,7.76-1.79,8.5,1.41a14.1,14.1,0,0,0-3.78-8.12,5.43,5.43,0,0,1-1.61-4.62s-3.61-7.38-10.67-4.91c-1.69,1-2.66,1.46-.92,7.81" transform="translate(-7.16 -6.65)" fill="#59692e"/><path d="M471.08,224.49s-3-2.4-4.41.06c0,0,.29,10.39-1.81,11.55-0.21,1.48,4.33,7.81,1.19,9.55a15.08,15.08,0,0,0,7.36-6.46,5.79,5.79,0,0,1,4.36-3.1s6.64-6.06,1.82-12.91c-1.53-1.53-2.37-2.43-8.51,1.31" transform="translate(-7.16 -6.65)" fill="#59692e"/><path d="M488.77,241.37s3.55-.21,3.29,2.36c0,0-5.71,7.66-4.75,9.63-0.62,1.22-7.39,3.6-5.95,6.56a13.76,13.76,0,0,1-2.12-8.72,5.28,5.28,0,0,0-1.64-4.61s-1.79-8,5.47-10.66c2-.35,3.07-0.58,5.71,5.45" transform="translate(-7.16 -6.65)" fill="#59692e"/><path d="M485.48,220.34s-0.42,1.44.71,1.67c0,0,3.82-1.33,4.58-.68,0.58-.09,2.23-2.57,3.37-1.58a6.84,6.84,0,0,0-3.55-2,2.65,2.65,0,0,1-1.83-1.29s-3.29-1.81-5.09.84c-0.33.76-.53,1.19,1.81,3.08" transform="translate(-7.16 -6.65)" fill="#59692e"/><path d="M480.37,216.74s-0.74-1.28-1.59-.6c0,0-1.41,3.71-2.33,3.82-0.29.49,0.41,3.37-1,3.54a5.91,5.91,0,0,0,3.58-1.24,2.27,2.27,0,0,1,2-.48s3.26-1.2,2.53-4.31c-0.33-.76-0.5-1.19-3.24-0.74" transform="translate(-7.16 -6.65)" fill="#59692e"/></g><line x1="475.74" y1="212.31" x2="478.27" y2="235.1" fill="none" stroke="#59692e" stroke-width="5"/><line x1="473.06" y1="185.29" x2="471.49" y2="183.72" fill="none" stroke="#59692e" stroke-width="5"/><line x1="481.02" y1="181.9" x2="476.92" y2="186" fill="none" stroke="#59692e" stroke-width="5"/><g clip-path="url(#clip-path)"><path d="M489.27,186.63s-2.8,2.05-1,3.89c0,0,9,2.42,9.5,4.55,1.22,0.56,7.76-1.79,8.5,1.41a14.1,14.1,0,0,0-3.78-8.12,5.43,5.43,0,0,1-1.61-4.62s-3.61-7.38-10.67-4.91c-1.69,1-2.66,1.46-.92,7.81" transform="translate(-7.16 -6.65)" fill="#59692e"/><path d="M471.08,181.35s-3-2.4-4.41.06c0,0,.29,10.39-1.81,11.55-0.21,1.48,4.33,7.81,1.19,9.55a15.08,15.08,0,0,0,7.36-6.46,5.79,5.79,0,0,1,4.36-3.1s6.64-6.06,1.82-12.91c-1.53-1.53-2.37-2.43-8.51,1.31" transform="translate(-7.16 -6.65)" fill="#59692e"/><path d="M488.77,198.24s3.55-.21,3.29,2.36c0,0-5.71,7.66-4.75,9.63-0.62,1.22-7.39,3.6-5.95,6.56a13.76,13.76,0,0,1-2.12-8.72,5.28,5.28,0,0,0-1.64-4.61s-1.79-8,5.47-10.66c2-.35,3.07-0.58,5.71,5.45" transform="translate(-7.16 -6.65)" fill="#59692e"/><path d="M485.48,177.21s-0.42,1.44.71,1.67c0,0,3.82-1.33,4.58-.68,0.58-.09,2.23-2.57,3.37-1.58a6.84,6.84,0,0,0-3.55-2,2.65,2.65,0,0,1-1.83-1.29s-3.29-1.81-5.09.84c-0.33.76-.53,1.19,1.81,3.08" transform="translate(-7.16 -6.65)" fill="#59692e"/><path d="M480.37,173.61s-0.74-1.28-1.59-.6c0,0-1.41,3.71-2.33,3.82-0.29.49,0.41,3.37-1,3.54a5.91,5.91,0,0,0,3.58-1.24,2.27,2.27,0,0,1,2-.48s3.26-1.2,2.53-4.31c-0.33-.76-0.5-1.19-3.24-0.74" transform="translate(-7.16 -6.65)" fill="#59692e"/></g><line x1="475.74" y1="169.18" x2="478.27" y2="191.97" fill="none" stroke="#59692e" stroke-width="5"/><line x1="473.06" y1="140.81" x2="471.49" y2="139.24" fill="none" stroke="#59692e" stroke-width="5"/><line x1="481.02" y1="137.42" x2="476.92" y2="141.52" fill="none" stroke="#59692e" stroke-width="5"/><g clip-path="url(#clip-path)"><path d="M489.27,142.15s-2.8,2.05-1,3.89c0,0,9,2.42,9.5,4.55,1.22,0.56,7.76-1.79,8.5,1.41a14.1,14.1,0,0,0-3.78-8.12,5.43,5.43,0,0,1-1.61-4.62s-3.61-7.38-10.67-4.91c-1.69,1-2.66,1.46-.92,7.81" transform="translate(-7.16 -6.65)" fill="#59692e"/><path d="M471.08,136.87s-3-2.4-4.41.06c0,0,.29,10.39-1.81,11.55-0.21,1.48,4.33,7.81,1.19,9.55a15.08,15.08,0,0,0,7.36-6.46,5.79,5.79,0,0,1,4.36-3.1s6.64-6.06,1.82-12.91c-1.53-1.53-2.37-2.43-8.51,1.31" transform="translate(-7.16 -6.65)" fill="#59692e"/><path d="M488.77,153.76s3.55-.21,3.29,2.36c0,0-5.71,7.66-4.75,9.63-0.62,1.22-7.39,3.6-5.95,6.56a13.76,13.76,0,0,1-2.12-8.72A5.28,5.28,0,0,0,477.6,159s-1.79-8,5.47-10.66c2-.35,3.07-0.58,5.71,5.45" transform="translate(-7.16 -6.65)" fill="#59692e"/><path d="M485.48,132.73s-0.42,1.44.71,1.67c0,0,3.82-1.33,4.58-.68,0.58-.09,2.23-2.57,3.37-1.58a6.84,6.84,0,0,0-3.55-2,2.65,2.65,0,0,1-1.83-1.29s-3.29-1.81-5.09.84c-0.33.76-.53,1.19,1.81,3.08" transform="translate(-7.16 -6.65)" fill="#59692e"/><path d="M480.37,129.13s-0.74-1.28-1.59-.6c0,0-1.41,3.71-2.33,3.82-0.29.49,0.41,3.37-1,3.54a5.91,5.91,0,0,0,3.58-1.24,2.27,2.27,0,0,1,2-.48s3.26-1.2,2.53-4.31c-0.33-.76-0.5-1.19-3.24-0.74" transform="translate(-7.16 -6.65)" fill="#59692e"/></g><line x1="475.74" y1="124.7" x2="478.27" y2="147.49" fill="none" stroke="#59692e" stroke-width="5"/><line x1="473.06" y1="95.84" x2="471.49" y2="94.27" fill="none" stroke="#59692e" stroke-width="5"/><line x1="481.02" y1="92.44" x2="476.92" y2="96.55" fill="none" stroke="#59692e" stroke-width="5"/><g clip-path="url(#clip-path)"><path d="M489.27,97.17s-2.8,2.05-1,3.89c0,0,9,2.42,9.5,4.55,1.22,0.56,7.76-1.79,8.5,1.41a14.1,14.1,0,0,0-3.78-8.12,5.43,5.43,0,0,1-1.61-4.62s-3.61-7.38-10.67-4.91c-1.69,1-2.66,1.46-.92,7.81" transform="translate(-7.16 -6.65)" fill="#59692e"/><path d="M471.08,91.9s-3-2.4-4.41.06c0,0,.29,10.39-1.81,11.55-0.21,1.48,4.33,7.81,1.19,9.55a15.08,15.08,0,0,0,7.36-6.46,5.79,5.79,0,0,1,4.36-3.1s6.64-6.06,1.82-12.91c-1.53-1.53-2.37-2.43-8.51,1.31" transform="translate(-7.16 -6.65)" fill="#59692e"/><path d="M488.77,108.78s3.55-.21,3.29,2.36c0,0-5.71,7.66-4.75,9.63-0.62,1.22-7.39,3.6-5.95,6.56a13.76,13.76,0,0,1-2.12-8.72A5.28,5.28,0,0,0,477.6,114s-1.79-8,5.47-10.66c2-.35,3.07-0.58,5.71,5.45" transform="translate(-7.16 -6.65)" fill="#59692e"/><path d="M485.48,87.75s-0.42,1.44.71,1.67c0,0,3.82-1.33,4.58-.68,0.58-.09,2.23-2.57,3.37-1.58a6.84,6.84,0,0,0-3.55-2,2.65,2.65,0,0,1-1.83-1.29s-3.29-1.81-5.09.84c-0.33.76-.53,1.19,1.81,3.08" transform="translate(-7.16 -6.65)" fill="#59692e"/><path d="M480.37,84.16s-0.74-1.28-1.59-.6c0,0-1.41,3.71-2.33,3.82-0.29.49,0.41,3.37-1,3.54a5.91,5.91,0,0,0,3.58-1.24,2.27,2.27,0,0,1,2-.48s3.26-1.2,2.53-4.31c-0.33-.76-0.5-1.19-3.24-0.74" transform="translate(-7.16 -6.65)" fill="#59692e"/></g><line x1="475.74" y1="79.73" x2="478.27" y2="102.51" fill="none" stroke="#59692e" stroke-width="5"/><line x1="403.45" y1="273.89" x2="401.88" y2="272.32" fill="none" stroke="#59692e" stroke-width="5"/><line x1="411.41" y1="270.49" x2="407.3" y2="274.59" fill="none" stroke="#59692e" stroke-width="5"/><g clip-path="url(#clip-path)"><path d="M419.66,275.22s-2.8,2.05-1,3.89c0,0,9,2.42,9.5,4.55,1.22,0.56,7.76-1.79,8.5,1.41a14.1,14.1,0,0,0-3.78-8.12,5.43,5.43,0,0,1-1.61-4.62s-3.61-7.38-10.67-4.91c-1.69,1-2.66,1.46-.92,7.81" transform="translate(-7.16 -6.65)" fill="#59692e"/><path d="M401.47,269.95s-3-2.4-4.41.06c0,0,.29,10.39-1.81,11.55-0.21,1.48,4.33,7.81,1.19,9.55a15.08,15.08,0,0,0,7.36-6.46,5.79,5.79,0,0,1,4.36-3.1s6.64-6.06,1.82-12.91c-1.53-1.53-2.37-2.43-8.51,1.31" transform="translate(-7.16 -6.65)" fill="#59692e"/><path d="M419.15,286.83s3.55-.21,3.29,2.36c0,0-5.71,7.66-4.75,9.63-0.62,1.22-7.39,3.6-5.95,6.56a13.76,13.76,0,0,1-2.12-8.72A5.28,5.28,0,0,0,408,292s-1.79-8,5.47-10.66c2-.35,3.07-0.58,5.71,5.45" transform="translate(-7.16 -6.65)" fill="#59692e"/><path d="M415.86,265.8s-0.42,1.44.71,1.67c0,0,3.82-1.33,4.58-.68,0.58-.09,2.23-2.57,3.37-1.58a6.84,6.84,0,0,0-3.55-2,2.65,2.65,0,0,1-1.83-1.29s-3.29-1.81-5.09.84c-0.33.76-.53,1.19,1.81,3.08" transform="translate(-7.16 -6.65)" fill="#59692e"/><path d="M410.75,262.21s-0.74-1.28-1.59-.6c0,0-1.41,3.71-2.33,3.82-0.29.49,0.41,3.37-1,3.54a5.91,5.91,0,0,0,3.58-1.24,2.27,2.27,0,0,1,2-.48s3.26-1.2,2.53-4.31c-0.33-.76-0.5-1.19-3.24-0.74" transform="translate(-7.16 -6.65)" fill="#59692e"/></g><line x1="406.13" y1="257.77" x2="408.66" y2="280.56" fill="none" stroke="#59692e" stroke-width="5"/><line x1="403.45" y1="228.01" x2="401.88" y2="226.43" fill="none" stroke="#59692e" stroke-width="5"/><line x1="411.41" y1="224.61" x2="407.3" y2="228.71" fill="none" stroke="#59692e" stroke-width="5"/><g clip-path="url(#clip-path)"><path d="M419.66,229.34s-2.8,2.05-1,3.89c0,0,9,2.42,9.5,4.55,1.22,0.56,7.76-1.79,8.5,1.41a14.1,14.1,0,0,0-3.78-8.12,5.43,5.43,0,0,1-1.61-4.62s-3.61-7.38-10.67-4.91c-1.69,1-2.66,1.46-.92,7.81" transform="translate(-7.16 -6.65)" fill="#59692e"/><path d="M401.47,224.07s-3-2.4-4.41.06c0,0,.29,10.39-1.81,11.55-0.21,1.48,4.33,7.81,1.19,9.55a15.08,15.08,0,0,0,7.36-6.46,5.79,5.79,0,0,1,4.36-3.1s6.64-6.06,1.82-12.91c-1.53-1.53-2.37-2.43-8.51,1.31" transform="translate(-7.16 -6.65)" fill="#59692e"/><path d="M419.15,241s3.55-.21,3.29,2.36c0,0-5.71,7.66-4.75,9.63-0.62,1.22-7.39,3.6-5.95,6.56a13.76,13.76,0,0,1-2.12-8.72,5.28,5.28,0,0,0-1.64-4.61s-1.79-8,5.47-10.66c2-.35,3.07-0.58,5.71,5.45" transform="translate(-7.16 -6.65)" fill="#59692e"/><path d="M415.86,219.92s-0.42,1.44.71,1.67c0,0,3.82-1.33,4.58-.68,0.58-.09,2.23-2.57,3.37-1.58a6.84,6.84,0,0,0-3.55-2,2.65,2.65,0,0,1-1.83-1.29s-3.29-1.81-5.09.84c-0.33.76-.53,1.19,1.81,3.08" transform="translate(-7.16 -6.65)" fill="#59692e"/><path d="M410.75,216.32s-0.74-1.28-1.59-.6c0,0-1.41,3.71-2.33,3.82-0.29.49,0.41,3.37-1,3.54a5.91,5.91,0,0,0,3.58-1.24,2.27,2.27,0,0,1,2-.48s3.26-1.2,2.53-4.31c-0.33-.76-0.5-1.19-3.24-0.74" transform="translate(-7.16 -6.65)" fill="#59692e"/></g><line x1="406.13" y1="211.89" x2="408.66" y2="234.68" fill="none" stroke="#59692e" stroke-width="5"/><line x1="403.45" y1="179.53" x2="401.88" y2="177.96" fill="none" stroke="#59692e" stroke-width="5"/><line x1="411.41" y1="176.14" x2="407.3" y2="180.24" fill="none" stroke="#59692e" stroke-width="5"/><g clip-path="url(#clip-path)"><path d="M419.66,180.87s-2.8,2.05-1,3.89c0,0,9,2.42,9.5,4.55,1.22,0.56,7.76-1.79,8.5,1.41a14.1,14.1,0,0,0-3.78-8.12,5.43,5.43,0,0,1-1.61-4.62s-3.61-7.38-10.67-4.91c-1.69,1-2.66,1.46-.92,7.81" transform="translate(-7.16 -6.65)" fill="#59692e"/><path d="M401.47,175.59s-3-2.4-4.41.06c0,0,.29,10.39-1.81,11.55-0.21,1.48,4.33,7.81,1.19,9.55a15.08,15.08,0,0,0,7.36-6.46,5.79,5.79,0,0,1,4.36-3.1s6.64-6.06,1.82-12.91c-1.53-1.53-2.37-2.43-8.51,1.31" transform="translate(-7.16 -6.65)" fill="#59692e"/><path d="M419.15,192.48s3.55-.21,3.29,2.36c0,0-5.71,7.66-4.75,9.63-0.62,1.22-7.39,3.6-5.95,6.56a13.76,13.76,0,0,1-2.12-8.72,5.28,5.28,0,0,0-1.64-4.61s-1.79-8,5.47-10.66c2-.35,3.07-0.58,5.71,5.45" transform="translate(-7.16 -6.65)" fill="#59692e"/><path d="M415.86,171.45s-0.42,1.44.71,1.67c0,0,3.82-1.33,4.58-.68,0.58-.09,2.23-2.57,3.37-1.58a6.84,6.84,0,0,0-3.55-2,2.65,2.65,0,0,1-1.83-1.29s-3.29-1.81-5.09.84c-0.33.76-.53,1.19,1.81,3.08" transform="translate(-7.16 -6.65)" fill="#59692e"/><path d="M410.75,167.85s-0.74-1.28-1.59-.6c0,0-1.41,3.71-2.33,3.82-0.29.49,0.41,3.37-1,3.54a5.91,5.91,0,0,0,3.58-1.24,2.27,2.27,0,0,1,2-.48s3.26-1.2,2.53-4.31c-0.33-.76-0.5-1.19-3.24-0.74" transform="translate(-7.16 -6.65)" fill="#59692e"/></g><line x1="406.13" y1="163.42" x2="408.66" y2="186.21" fill="none" stroke="#59692e" stroke-width="5"/><line x1="403.45" y1="129.71" x2="401.88" y2="128.14" fill="none" stroke="#59692e" stroke-width="5"/><line x1="411.41" y1="126.32" x2="407.3" y2="130.42" fill="none" stroke="#59692e" stroke-width="5"/><g clip-path="url(#clip-path)"><path d="M419.66,131s-2.8,2.05-1,3.89c0,0,9,2.42,9.5,4.55,1.22,0.56,7.76-1.79,8.5,1.41a14.1,14.1,0,0,0-3.78-8.12,5.43,5.43,0,0,1-1.61-4.62s-3.61-7.38-10.67-4.91c-1.69,1-2.66,1.46-.92,7.81" transform="translate(-7.16 -6.65)" fill="#59692e"/><path d="M401.47,125.77s-3-2.4-4.41.06c0,0,.29,10.39-1.81,11.55-0.21,1.48,4.33,7.81,1.19,9.55a15.08,15.08,0,0,0,7.36-6.46,5.79,5.79,0,0,1,4.36-3.1s6.64-6.06,1.82-12.91c-1.53-1.53-2.37-2.43-8.51,1.31" transform="translate(-7.16 -6.65)" fill="#59692e"/><path d="M419.15,142.66s3.55-.21,3.29,2.36c0,0-5.71,7.66-4.75,9.63-0.62,1.22-7.39,3.6-5.95,6.56a13.76,13.76,0,0,1-2.12-8.72,5.28,5.28,0,0,0-1.64-4.61s-1.79-8,5.47-10.66c2-.35,3.07-0.58,5.71,5.45" transform="translate(-7.16 -6.65)" fill="#59692e"/><path d="M415.86,121.63s-0.42,1.44.71,1.67c0,0,3.82-1.33,4.58-.68,0.58-.09,2.23-2.57,3.37-1.58a6.84,6.84,0,0,0-3.55-2,2.65,2.65,0,0,1-1.83-1.29s-3.29-1.81-5.09.84c-0.33.76-.53,1.19,1.81,3.08" transform="translate(-7.16 -6.65)" fill="#59692e"/><path d="M410.75,118s-0.74-1.28-1.59-.6c0,0-1.41,3.71-2.33,3.82-0.29.49,0.41,3.37-1,3.54a5.91,5.91,0,0,0,3.58-1.24,2.27,2.27,0,0,1,2-.48s3.26-1.2,2.53-4.31c-0.33-.76-0.5-1.19-3.24-0.74" transform="translate(-7.16 -6.65)" fill="#59692e"/></g><line x1="406.13" y1="113.6" x2="408.66" y2="136.39" fill="none" stroke="#59692e" stroke-width="5"/><line x1="403.45" y1="80.73" x2="401.88" y2="79.16" fill="none" stroke="#59692e" stroke-width="5"/><line x1="411.41" y1="77.34" x2="407.3" y2="81.44" fill="none" stroke="#59692e" stroke-width="5"/><g clip-path="url(#clip-path)"><path d="M419.66,82.07s-2.8,2.05-1,3.89c0,0,9,2.42,9.5,4.55,1.22,0.56,7.76-1.79,8.5,1.41a14.1,14.1,0,0,0-3.78-8.12,5.43,5.43,0,0,1-1.61-4.62s-3.61-7.38-10.67-4.91c-1.69,1-2.66,1.46-.92,7.81" transform="translate(-7.16 -6.65)" fill="#59692e"/><path d="M401.47,76.8s-3-2.4-4.41.06c0,0,.29,10.39-1.81,11.55-0.21,1.48,4.33,7.81,1.19,9.55a15.08,15.08,0,0,0,7.36-6.46,5.79,5.79,0,0,1,4.36-3.1s6.64-6.06,1.82-12.91c-1.53-1.53-2.37-2.43-8.51,1.31" transform="translate(-7.16 -6.65)" fill="#59692e"/><path d="M419.15,93.68s3.55-.21,3.29,2.36c0,0-5.71,7.66-4.75,9.63-0.62,1.22-7.39,3.6-5.95,6.56a13.76,13.76,0,0,1-2.12-8.72A5.28,5.28,0,0,0,408,98.9s-1.79-8,5.47-10.66c2-.35,3.07-0.58,5.71,5.45" transform="translate(-7.16 -6.65)" fill="#59692e"/><path d="M415.86,72.65s-0.42,1.44.71,1.67c0,0,3.82-1.33,4.58-.68,0.58-.09,2.23-2.57,3.37-1.58A6.84,6.84,0,0,0,421,70a2.65,2.65,0,0,1-1.83-1.29s-3.29-1.81-5.09.84c-0.33.76-.53,1.19,1.81,3.08" transform="translate(-7.16 -6.65)" fill="#59692e"/><path d="M410.75,69.05s-0.74-1.28-1.59-.6c0,0-1.41,3.71-2.33,3.82-0.29.49,0.41,3.37-1,3.54a5.91,5.91,0,0,0,3.58-1.24,2.27,2.27,0,0,1,2-.48s3.26-1.2,2.53-4.31c-0.33-.76-0.5-1.19-3.24-0.74" transform="translate(-7.16 -6.65)" fill="#59692e"/></g><line x1="406.13" y1="64.62" x2="408.66" y2="87.41" fill="none" stroke="#59692e" stroke-width="5"/><line x1="327.9" y1="272.53" x2="326.32" y2="270.95" fill="none" stroke="#59692e" stroke-width="5"/><line x1="335.85" y1="269.13" x2="331.75" y2="273.23" fill="none" stroke="#59692e" stroke-width="5"/><g clip-path="url(#clip-path)"><path d="M344.1,273.86s-2.8,2.05-1,3.89c0,0,9,2.42,9.5,4.55,1.22,0.56,7.76-1.79,8.5,1.41a14.1,14.1,0,0,0-3.78-8.12A5.43,5.43,0,0,1,355.7,271s-3.61-7.38-10.67-4.91c-1.69,1-2.66,1.46-.92,7.81" transform="translate(-7.16 -6.65)" fill="#59692e"/><path d="M325.91,268.59s-3-2.4-4.41.06c0,0,.29,10.39-1.81,11.55-0.21,1.48,4.33,7.81,1.19,9.55a15.08,15.08,0,0,0,7.36-6.46,5.79,5.79,0,0,1,4.36-3.1s6.64-6.06,1.82-12.91c-1.53-1.53-2.37-2.43-8.51,1.31" transform="translate(-7.16 -6.65)" fill="#59692e"/><path d="M343.6,285.47s3.55-.21,3.29,2.36c0,0-5.71,7.66-4.75,9.63-0.62,1.22-7.39,3.6-5.95,6.56a13.76,13.76,0,0,1-2.12-8.72,5.28,5.28,0,0,0-1.64-4.61s-1.79-8,5.47-10.66c2-.35,3.07-0.58,5.71,5.45" transform="translate(-7.16 -6.65)" fill="#59692e"/><path d="M340.31,264.44s-0.42,1.44.71,1.67c0,0,3.82-1.33,4.58-.68,0.58-.09,2.23-2.57,3.37-1.58a6.84,6.84,0,0,0-3.55-2,2.65,2.65,0,0,1-1.83-1.29s-3.29-1.81-5.09.84c-0.33.76-.53,1.19,1.81,3.08" transform="translate(-7.16 -6.65)" fill="#59692e"/><path d="M335.2,260.84s-0.74-1.28-1.59-.6c0,0-1.41,3.71-2.33,3.82-0.29.49,0.41,3.37-1,3.54a5.91,5.91,0,0,0,3.58-1.24,2.27,2.27,0,0,1,2-.48s3.26-1.2,2.53-4.31c-0.33-.76-0.5-1.19-3.24-0.74" transform="translate(-7.16 -6.65)" fill="#59692e"/></g><line x1="330.57" y1="256.41" x2="333.1" y2="279.2" fill="none" stroke="#59692e" stroke-width="5"/><line x1="327.9" y1="222.64" x2="326.32" y2="221.07" fill="none" stroke="#59692e" stroke-width="5"/><line x1="335.85" y1="219.24" x2="331.75" y2="223.35" fill="none" stroke="#59692e" stroke-width="5"/><g clip-path="url(#clip-path)"><path d="M344.1,224s-2.8,2.05-1,3.89c0,0,9,2.42,9.5,4.55,1.22,0.56,7.76-1.79,8.5,1.41a14.1,14.1,0,0,0-3.78-8.12,5.43,5.43,0,0,1-1.61-4.62s-3.61-7.38-10.67-4.91c-1.69,1-2.66,1.46-.92,7.81" transform="translate(-7.16 -6.65)" fill="#59692e"/><path d="M325.91,218.7s-3-2.4-4.41.06c0,0,.29,10.39-1.81,11.55-0.21,1.48,4.33,7.81,1.19,9.55a15.08,15.08,0,0,0,7.36-6.46,5.79,5.79,0,0,1,4.36-3.1s6.64-6.06,1.82-12.91c-1.53-1.53-2.37-2.43-8.51,1.31" transform="translate(-7.16 -6.65)" fill="#59692e"/><path d="M343.6,235.58s3.55-.21,3.29,2.36c0,0-5.71,7.66-4.75,9.63-0.62,1.22-7.39,3.6-5.95,6.56a13.76,13.76,0,0,1-2.12-8.72,5.28,5.28,0,0,0-1.64-4.61s-1.79-8,5.47-10.66c2-.35,3.07-0.58,5.71,5.45" transform="translate(-7.16 -6.65)" fill="#59692e"/><path d="M340.31,214.55s-0.42,1.44.71,1.67c0,0,3.82-1.33,4.58-.68,0.58-.09,2.23-2.57,3.37-1.58a6.84,6.84,0,0,0-3.55-2,2.65,2.65,0,0,1-1.83-1.29s-3.29-1.81-5.09.84c-0.33.76-.53,1.19,1.81,3.08" transform="translate(-7.16 -6.65)" fill="#59692e"/><path d="M335.2,211s-0.74-1.28-1.59-.6c0,0-1.41,3.71-2.33,3.82-0.29.49,0.41,3.37-1,3.54a5.91,5.91,0,0,0,3.58-1.24,2.27,2.27,0,0,1,2-.48s3.26-1.2,2.53-4.31c-0.33-.76-0.5-1.19-3.24-0.74" transform="translate(-7.16 -6.65)" fill="#59692e"/></g><line x1="330.57" y1="206.53" x2="333.1" y2="229.31" fill="none" stroke="#59692e" stroke-width="5"/><line x1="327.9" y1="171.5" x2="326.32" y2="169.93" fill="none" stroke="#59692e" stroke-width="5"/><line x1="335.85" y1="168.1" x2="331.75" y2="172.2" fill="none" stroke="#59692e" stroke-width="5"/><g clip-path="url(#clip-path)"><path d="M344.1,172.83s-2.8,2.05-1,3.89c0,0,9,2.42,9.5,4.55,1.22,0.56,7.76-1.79,8.5,1.41a14.1,14.1,0,0,0-3.78-8.12,5.43,5.43,0,0,1-1.61-4.62S352.08,162.55,345,165c-1.69,1-2.66,1.46-.92,7.81" transform="translate(-7.16 -6.65)" fill="#59692e"/><path d="M325.91,167.56s-3-2.4-4.41.06c0,0,.29,10.39-1.81,11.55-0.21,1.48,4.33,7.81,1.19,9.55a15.08,15.08,0,0,0,7.36-6.46,5.79,5.79,0,0,1,4.36-3.1s6.64-6.06,1.82-12.91c-1.53-1.53-2.37-2.43-8.51,1.31" transform="translate(-7.16 -6.65)" fill="#59692e"/><path d="M343.6,184.44s3.55-.21,3.29,2.36c0,0-5.71,7.66-4.75,9.63-0.62,1.22-7.39,3.6-5.95,6.56a13.76,13.76,0,0,1-2.12-8.72,5.28,5.28,0,0,0-1.64-4.61s-1.79-8,5.47-10.66c2-.35,3.07-0.58,5.71,5.45" transform="translate(-7.16 -6.65)" fill="#59692e"/><path d="M340.31,163.41s-0.42,1.44.71,1.67c0,0,3.82-1.33,4.58-.68,0.58-.09,2.23-2.57,3.37-1.58a6.84,6.84,0,0,0-3.55-2,2.65,2.65,0,0,1-1.83-1.29s-3.29-1.81-5.09.84c-0.33.76-.53,1.19,1.81,3.08" transform="translate(-7.16 -6.65)" fill="#59692e"/><path d="M335.2,159.82s-0.74-1.28-1.59-.6c0,0-1.41,3.71-2.33,3.82-0.29.49,0.41,3.37-1,3.54a5.91,5.91,0,0,0,3.58-1.24,2.27,2.27,0,0,1,2-.48s3.26-1.2,2.53-4.31c-0.33-.76-0.5-1.19-3.24-0.74" transform="translate(-7.16 -6.65)" fill="#59692e"/></g><line x1="330.57" y1="155.38" x2="333.1" y2="178.17" fill="none" stroke="#59692e" stroke-width="5"/><line x1="327.9" y1="121.68" x2="326.32" y2="120.11" fill="none" stroke="#59692e" stroke-width="5"/><line x1="335.85" y1="118.28" x2="331.75" y2="122.38" fill="none" stroke="#59692e" stroke-width="5"/><g clip-path="url(#clip-path)"><path d="M344.1,123s-2.8,2.05-1,3.89c0,0,9,2.42,9.5,4.55,1.22,0.56,7.76-1.79,8.5,1.41a14.1,14.1,0,0,0-3.78-8.12,5.43,5.43,0,0,1-1.61-4.62s-3.61-7.38-10.67-4.91c-1.69,1-2.66,1.46-.92,7.81" transform="translate(-7.16 -6.65)" fill="#59692e"/><path d="M325.91,117.74s-3-2.4-4.41.06c0,0,.29,10.39-1.81,11.55-0.21,1.48,4.33,7.81,1.19,9.55a15.08,15.08,0,0,0,7.36-6.46,5.79,5.79,0,0,1,4.36-3.1s6.64-6.06,1.82-12.91c-1.53-1.53-2.37-2.43-8.51,1.31" transform="translate(-7.16 -6.65)" fill="#59692e"/><path d="M343.6,134.62s3.55-.21,3.29,2.36c0,0-5.71,7.66-4.75,9.63-0.62,1.22-7.39,3.6-5.95,6.56a13.76,13.76,0,0,1-2.12-8.72,5.28,5.28,0,0,0-1.64-4.61s-1.79-8,5.47-10.66c2-.35,3.07-0.58,5.71,5.45" transform="translate(-7.16 -6.65)" fill="#59692e"/><path d="M340.31,113.59s-0.42,1.44.71,1.67c0,0,3.82-1.33,4.58-.68,0.58-.09,2.23-2.57,3.37-1.58a6.84,6.84,0,0,0-3.55-2,2.65,2.65,0,0,1-1.83-1.29s-3.29-1.81-5.09.84c-0.33.76-.53,1.19,1.81,3.08" transform="translate(-7.16 -6.65)" fill="#59692e"/><path d="M335.2,110s-0.74-1.28-1.59-.6c0,0-1.41,3.71-2.33,3.82-0.29.49,0.41,3.37-1,3.54a5.91,5.91,0,0,0,3.58-1.24,2.27,2.27,0,0,1,2-.48s3.26-1.2,2.53-4.31c-0.33-.76-0.5-1.19-3.24-0.74" transform="translate(-7.16 -6.65)" fill="#59692e"/></g><line x1="330.57" y1="105.56" x2="333.1" y2="128.35" fill="none" stroke="#59692e" stroke-width="5"/><line x1="185.57" y1="273.89" x2="183.99" y2="272.32" fill="none" stroke="#59692e" stroke-width="5"/><line x1="193.52" y1="270.49" x2="189.42" y2="274.59" fill="none" stroke="#59692e" stroke-width="5"/><g clip-path="url(#clip-path)"><path d="M201.77,275.22s-2.8,2.05-1,3.89c0,0,9,2.42,9.5,4.55,1.22,0.56,7.76-1.79,8.5,1.41A14.1,14.1,0,0,0,215,277a5.43,5.43,0,0,1-1.61-4.62s-3.61-7.38-10.67-4.91c-1.69,1-2.66,1.46-.92,7.81" transform="translate(-7.16 -6.65)" fill="#59692e"/><path d="M183.58,269.95s-3-2.4-4.41.06c0,0,.29,10.39-1.81,11.55-0.21,1.48,4.33,7.81,1.19,9.55a15.08,15.08,0,0,0,7.36-6.46,5.79,5.79,0,0,1,4.36-3.1s6.64-6.06,1.82-12.91c-1.53-1.53-2.37-2.43-8.51,1.31" transform="translate(-7.16 -6.65)" fill="#59692e"/><path d="M201.27,286.83s3.55-.21,3.29,2.36c0,0-5.71,7.66-4.75,9.63-0.62,1.22-7.39,3.6-5.95,6.56a13.76,13.76,0,0,1-2.12-8.72A5.28,5.28,0,0,0,190.1,292s-1.79-8,5.47-10.66c2-.35,3.07-0.58,5.71,5.45" transform="translate(-7.16 -6.65)" fill="#59692e"/><path d="M198,265.8s-0.42,1.44.71,1.67c0,0,3.82-1.33,4.58-.68,0.58-.09,2.23-2.57,3.37-1.58a6.84,6.84,0,0,0-3.55-2,2.65,2.65,0,0,1-1.83-1.29s-3.29-1.81-5.09.84c-0.33.76-.53,1.19,1.81,3.08" transform="translate(-7.16 -6.65)" fill="#59692e"/><path d="M192.87,262.21s-0.74-1.28-1.59-.6c0,0-1.41,3.71-2.33,3.82-0.29.49,0.41,3.37-1,3.54a5.91,5.91,0,0,0,3.58-1.24,2.27,2.27,0,0,1,2-.48s3.26-1.2,2.53-4.31c-0.33-.76-0.5-1.19-3.24-0.74" transform="translate(-7.16 -6.65)" fill="#59692e"/></g><line x1="188.24" y1="257.77" x2="190.77" y2="280.56" fill="none" stroke="#59692e" stroke-width="5"/><line x1="185.57" y1="224" x2="183.99" y2="222.43" fill="none" stroke="#59692e" stroke-width="5"/><line x1="193.52" y1="220.61" x2="189.42" y2="224.71" fill="none" stroke="#59692e" stroke-width="5"/><g clip-path="url(#clip-path)"><path d="M201.77,225.33s-2.8,2.05-1,3.89c0,0,9,2.42,9.5,4.55,1.22,0.56,7.76-1.79,8.5,1.41a14.1,14.1,0,0,0-3.78-8.12,5.43,5.43,0,0,1-1.61-4.62s-3.61-7.38-10.67-4.91c-1.69,1-2.66,1.46-.92,7.81" transform="translate(-7.16 -6.65)" fill="#59692e"/><path d="M183.58,220.06s-3-2.4-4.41.06c0,0,.29,10.39-1.81,11.55-0.21,1.48,4.33,7.81,1.19,9.55a15.08,15.08,0,0,0,7.36-6.46,5.79,5.79,0,0,1,4.36-3.1s6.64-6.06,1.82-12.91c-1.53-1.53-2.37-2.43-8.51,1.31" transform="translate(-7.16 -6.65)" fill="#59692e"/><path d="M201.27,236.95s3.55-.21,3.29,2.36c0,0-5.71,7.66-4.75,9.63-0.62,1.22-7.39,3.6-5.95,6.56a13.76,13.76,0,0,1-2.12-8.72,5.28,5.28,0,0,0-1.64-4.61s-1.79-8,5.47-10.66c2-.35,3.07-0.58,5.71,5.45" transform="translate(-7.16 -6.65)" fill="#59692e"/><path d="M198,215.92s-0.42,1.44.71,1.67c0,0,3.82-1.33,4.58-.68,0.58-.09,2.23-2.57,3.37-1.58a6.84,6.84,0,0,0-3.55-2,2.65,2.65,0,0,1-1.83-1.29s-3.29-1.81-5.09.84c-0.33.76-.53,1.19,1.81,3.08" transform="translate(-7.16 -6.65)" fill="#59692e"/><path d="M192.87,212.32s-0.74-1.28-1.59-.6c0,0-1.41,3.71-2.33,3.82-0.29.49,0.41,3.37-1,3.54a5.91,5.91,0,0,0,3.58-1.24,2.27,2.27,0,0,1,2-.48s3.26-1.2,2.53-4.31c-0.33-.76-0.5-1.19-3.24-0.74" transform="translate(-7.16 -6.65)" fill="#59692e"/></g><line x1="188.24" y1="207.89" x2="190.77" y2="230.67" fill="none" stroke="#59692e" stroke-width="5"/><line x1="257.85" y1="285.08" x2="256.28" y2="283.51" fill="none" stroke="#59692e" stroke-width="5"/><line x1="265.81" y1="282.11" x2="261.7" y2="286.21" fill="none" stroke="#59692e" stroke-width="5"/><g clip-path="url(#clip-path)"><path d="M274.06,288.09s-2.8,1.18-1,2.23c0,0,9,1.39,9.5,2.61,1.22,0.32,7.76-1,8.5.81a7.49,7.49,0,0,0-3.78-4.66c-2.11-1.17-1.61-2.65-1.61-2.65S282,282.19,275,283.61c-1.69.55-2.66,0.84-.92,4.48" transform="translate(-7.16 -6.65)" fill="#59692e"/><path d="M255.87,285.06s-3-1.37-4.41,0c0,0,.29,6-1.81,6.62-0.21.85,4.33,4.48,1.19,5.47,3.26-.87,5.87-2.06,7.36-3.71s4.36-1.78,4.36-1.78,6.64-3.48,1.82-7.4c-1.53-.88-2.37-1.39-8.51.75" transform="translate(-7.16 -6.65)" fill="#59692e"/><path d="M273.55,294.75s3.55-.12,3.29,1.35c0,0-5.71,4.39-4.75,5.52-0.62.7-7.39,2.07-5.95,3.76-1.65-1.64-2.51-3.32-2.12-5s-1.64-2.65-1.64-2.65-1.79-4.61,5.47-6.11c2-.2,3.07-0.33,5.71,3.12" transform="translate(-7.16 -6.65)" fill="#59692e"/><path d="M270.26,282.69s-0.42.82,0.71,1c0,0,3.82-.77,4.58-0.39,0.58-.05,2.23-1.47,3.37-0.91a9,9,0,0,0-3.55-1.17,2.86,2.86,0,0,1-1.83-.74s-3.29-1-5.09.48c-0.33.44-.53,0.68,1.81,1.76" transform="translate(-7.16 -6.65)" fill="#59692e"/><path d="M265.15,280.62a1.52,1.52,0,0,0-1.59-.35s-1.41,2.13-2.33,2.19c-0.29.28,0.41,1.93-1,2a9,9,0,0,0,3.58-.71,3.71,3.71,0,0,1,2-.27s3.26-.69,2.53-2.47c-0.33-.44-0.5-0.69-3.24-0.43" transform="translate(-7.16 -6.65)" fill="#59692e"/></g><line x1="260.47" y1="275.75" x2="263.11" y2="287.81" fill="none" stroke="#59692e" stroke-width="5"/><path d="M257.8,314.68h0l-2.05,1.68-0.59-.74,2.8-2.29h0.82v11.34h-1v-10Z" transform="translate(-7.16 -6.65)" fill="#546238"/><path d="M267.59,319.68h0a1.91,1.91,0,0,1-.78.36,3.81,3.81,0,0,1-.91.12,3.52,3.52,0,0,1-1.39-.27,3.4,3.4,0,0,1-1.1-.75,3.36,3.36,0,0,1-.72-1.11,3.61,3.61,0,0,1-.26-1.37,3.53,3.53,0,0,1,.28-1.42,3.29,3.29,0,0,1,.78-1.11,3.62,3.62,0,0,1,1.18-.73,4.29,4.29,0,0,1,3,0,3.64,3.64,0,0,1,1.18.73,3.29,3.29,0,0,1,.78,1.11,3.53,3.53,0,0,1,.28,1.42,3.63,3.63,0,0,1-.1.85,4.46,4.46,0,0,1-.26.76,7.26,7.26,0,0,1-.34.68l-0.34.61-3.08,5.11H264.5Zm-1.47-.35a2.61,2.61,0,0,0,1-.21,2.67,2.67,0,0,0,.85-0.57,2.7,2.7,0,0,0,.57-0.84,2.6,2.6,0,0,0,.21-1,2.94,2.94,0,0,0-.19-1.08,2.4,2.4,0,0,0-1.39-1.39,3.15,3.15,0,0,0-2.16,0,2.4,2.4,0,0,0-1.39,1.39,2.94,2.94,0,0,0-.19,1.08,2.6,2.6,0,0,0,.21,1,2.68,2.68,0,0,0,1.41,1.41A2.59,2.59,0,0,0,266.12,319.32Z" transform="translate(-7.16 -6.65)" fill="#546238"/><path d="M275.92,319.68h0a1.91,1.91,0,0,1-.78.36,3.81,3.81,0,0,1-.91.12,3.52,3.52,0,0,1-1.39-.27,3.4,3.4,0,0,1-1.1-.75A3.36,3.36,0,0,1,271,318a3.61,3.61,0,0,1-.26-1.37,3.53,3.53,0,0,1,.28-1.42,3.29,3.29,0,0,1,.78-1.11,3.62,3.62,0,0,1,1.18-.73,4.29,4.29,0,0,1,3,0,3.64,3.64,0,0,1,1.18.73,3.29,3.29,0,0,1,.78,1.11,3.53,3.53,0,0,1,.28,1.42,3.63,3.63,0,0,1-.1.85,4.46,4.46,0,0,1-.26.76,7.26,7.26,0,0,1-.34.68l-0.34.61L274,324.67h-1.22Zm-1.47-.35a2.61,2.61,0,0,0,1-.21,2.67,2.67,0,0,0,.85-0.57,2.7,2.7,0,0,0,.57-0.84,2.6,2.6,0,0,0,.21-1,2.94,2.94,0,0,0-.19-1.08,2.4,2.4,0,0,0-1.39-1.39,3.15,3.15,0,0,0-2.16,0,2.4,2.4,0,0,0-1.39,1.39,2.94,2.94,0,0,0-.19,1.08,2.6,2.6,0,0,0,.21,1,2.68,2.68,0,0,0,1.41,1.41A2.59,2.59,0,0,0,274.45,319.32Z" transform="translate(-7.16 -6.65)" fill="#546238"/><path d="M281.3,318.33h0a1.91,1.91,0,0,1,.78-0.36,3.81,3.81,0,0,1,.91-0.12,3.53,3.53,0,0,1,1.39.27,3.34,3.34,0,0,1,1.83,1.85,3.62,3.62,0,0,1,.26,1.37,3.54,3.54,0,0,1-.28,1.42,3.29,3.29,0,0,1-.78,1.11,3.62,3.62,0,0,1-1.18.73,4.28,4.28,0,0,1-3,0,3.61,3.61,0,0,1-1.18-.73,3.29,3.29,0,0,1-.78-1.11,3.54,3.54,0,0,1-.28-1.42,3.63,3.63,0,0,1,.1-0.85,4.42,4.42,0,0,1,.26-0.76c0.11-.24.22-0.47,0.34-0.68s0.23-.42.35-0.61l3.08-5.11h1.22Zm1.47,0.35a2.59,2.59,0,0,0-1,.21,2.66,2.66,0,0,0-1.41,1.42,2.61,2.61,0,0,0-.21,1,2.93,2.93,0,0,0,.19,1.08,2.39,2.39,0,0,0,1.39,1.39,3.13,3.13,0,0,0,2.16,0,2.39,2.39,0,0,0,1.39-1.39,2.93,2.93,0,0,0,.19-1.08,2.61,2.61,0,0,0-.21-1,2.63,2.63,0,0,0-1.42-1.42A2.61,2.61,0,0,0,282.78,318.68Z" transform="translate(-7.16 -6.65)" fill="#546238"/></svg>