<svg id="Layer_1" data-name="Layer 1" xmlns="http://www.w3.org/2000/svg" viewBox="0 0 46.53 98.46"><title>growth-5</title><path d="M60.18,21.61S57,23.91,59,26c0,0,10.12,2.72,10.67,5.12,1.37,0.63,8.72-2,9.55,1.59A15.84,15.84,0,0,0,75,23.55a6.1,6.1,0,0,1-1.81-5.2s-4.06-8.3-12-5.52c-1.9,1.07-3,1.64-1,8.77" transform="translate(-32.74 -5.95)" fill="#59692e"/><path d="M39.74,15.68s-3.41-2.69-5,.07c0,0,.32,11.67-2,13-0.23,1.66,4.86,8.77,1.34,10.73,3.66-1.71,6.6-4,8.27-7.26a6.51,6.51,0,0,1,4.9-3.48s7.46-6.81,2-14.51c-1.72-1.72-2.67-2.73-9.56,1.48" transform="translate(-32.74 -5.95)" fill="#59692e"/><path d="M60.43,31.07s4-.24,3.69,2.65c0,0-6.42,8.61-5.34,10.82-0.7,1.37-8.3,4-6.68,7.37a15.46,15.46,0,0,1-2.38-9.8,5.93,5.93,0,0,0-1.85-5.19s-2-9,6.14-12c2.21-.39,3.45-0.65,6.41,6.12" transform="translate(-32.74 -5.95)" fill="#59692e"/><path d="M55.91,11s-0.47,1.62.8,1.88c0,0,4.29-1.5,5.14-.76,0.65-.11,2.5-2.88,3.78-1.77a7.68,7.68,0,0,0-4-2.29,3,3,0,0,1-2.06-1.45s-3.69-2-5.71.94c-0.37.86-.6,1.33,2,3.46" transform="translate(-32.74 -5.95)" fill="#59692e"/><path d="M50.17,7s-0.83-1.44-1.79-.68c0,0-1.58,4.17-2.62,4.3-0.33.55,0.46,3.79-1.08,4a6.64,6.64,0,0,0,4-1.39A2.55,2.55,0,0,1,51,12.66s3.66-1.35,2.84-4.84C53.44,7,53.25,6.47,50.17,7" transform="translate(-32.74 -5.95)" fill="#59692e"/><path d="M55.92,30.62c0.33,3.6,2.19,12.37,2,16.87s2.19,5.6,0,20.46c-0.2,2.37-1.39,16.88-.79,21.95s1,12.82.6,14.51c-0.2-1-1.39-15.62-2.58-19.4S55,76.4,55,75.05s-0.05-10.8.15-14.51-0.6-4.72-.4-9.45a33.73,33.73,0,0,0-.34-9.22c-0.65-5-1.45-9.44-1.45-13.95,0.2-1.13,2.65-.9,3,2.7" transform="translate(-32.74 -5.95)" fill="#59692e"/></svg>