<svg id="Layer_1" data-name="Layer 1" xmlns="http://www.w3.org/2000/svg" viewBox="0 0 27.4 54.09"><title>growth-3</title><path d="M33.86,11.39a9.15,9.15,0,0,1,10.82.84c5.42,4.5,5.83,11.31-2,11.7-0.57-.1-2-0.32-3.35-2.81-0.24-.42-1.75-2.84-4-3.41-0.4-.16-4.11-2.71-1.5-6.33" transform="translate(-21.26 -9.99)" fill="#766a26"/><path d="M39,20.64s-10.54.56-12.65-3.93c-0.16-.08-2.25-1-1.9,1.26s2.32,7.73,2.11,10.54,2.32,3.5,0,12.78c-0.21,1.48-1.47,10.55-.84,13.71s1.05,8,.63,9.06c-0.21-.63-1.48-9.76-2.74-12.12s-0.15-5.38-.15-6.22-0.06-6.75.15-9.06-0.63-3-.42-5.9,0.33-2.66-.36-5.76-1.54-5.9-1.54-8.71c0.21-.7.68-5.16,8.77-6.3h7.39c0.7,0,3.38,2.86,1.55,10.66" transform="translate(-21.26 -9.99)" fill="#59692e"/></svg>