<svg id="Layer_1" data-name="Layer 1" xmlns="http://www.w3.org/2000/svg" viewBox="0 0 18.08 44.15"><title>growth-2</title><path d="M39.14,17.77a10.4,10.4,0,0,1,4.73,11.4C42.11,37,35.42,40.93,31,33.2c-0.19-.63-0.72-2.22,1.12-4.84,0.3-.46,2-3.25,1.41-5.8,0-.49.62-5.57,5.64-4.79" transform="translate(-26.1 -15.37)" fill="#766a26"/><path d="M29,24.26s1.68-5,3.84-4.32c0.48,0,.06,2.06.06,2.06s1.14,3.7,1.86,3.94,8.47-3,8.47-3a8.49,8.49,0,0,0-4.45-6.8c-0.9-.18-7.62-3.32-11.7,4.93-0.72,3.94-1.26,6.34-.72,8.74S27.7,39.85,26.8,42c0,1.92,3.84,6,3.84,11s-1,6.48-1,6.48,5.36-2.4,3.2-8.64-3.36-6.48-3.12-8.4,1.68-8.64,0-12.71S29,24.26,29,24.26" transform="translate(-26.1 -15.37)" fill="#59692e"/></svg>