<svg id="Layer_1" data-name="Layer 1" xmlns="http://www.w3.org/2000/svg" viewBox="0 0 12.52 20.1"><title>growth-1</title><path d="M12.33,17.52s0.7-1.57,1.59-1.35c0.2,0,0,.64,0,0.64A3.29,3.29,0,0,0,14.72,18a29.33,29.33,0,0,0,3.51-.95A2.62,2.62,0,0,0,16.38,15c-0.37-.06-3.16-1-4.84,1.54a5.37,5.37,0,0,0-.3,2.73c0.22,0.75.57,3.15,0.2,3.82,0,0.6,1.59,1.87,1.59,3.45a3.12,3.12,0,0,1-.43,2s2.22-.75,1.32-2.7-1.39-2-1.29-2.62,0.69-2.7,0-4-0.3-1.73-.3-1.73" transform="translate(-11.15 -8.44)" fill="#59692e"/><path d="M21.52,8.92a8.3,8.3,0,0,1,1,9.8c-3.17,5.55-9.19,7-10.77.07,0-.53,0-1.87,2-3.43,0.33-.28,2.26-2,2.42-4.09,0.08-.38,1.77-4.1,5.42-2.34" transform="translate(-11.15 -8.44)" fill="#766a26"/></svg>