<svg id="Layer_1" data-name="Layer 1" xmlns="http://www.w3.org/2000/svg" viewBox="0 0 28.34 76.67"><title>growth-4</title><path d="M47.55,14.07s-2.09.87-1.22,2.26c0,0,5.39,2.78,5.39,4.18,0.7,0.52,5.22,0,5.22,2.09A8.73,8.73,0,0,0,55.72,17a3.35,3.35,0,0,1-.35-3.09s-1.22-5.09-6.09-4.56c-1.22.35-1.91,0.52-1.74,4.7" transform="translate(-28.63 -9.33)" fill="#59692e"/><path d="M37.64,12.2s-0.76-2.13-2.2-1.33c0,0-3.06,5.24-4.45,5.17-0.56.67-.27,5.21-2.36,5.1a8.73,8.73,0,0,0,5.62-.92A3.35,3.35,0,0,1,37.36,20s5.14-1,4.88-5.84c-0.28-1.23-.42-1.94-4.6-2" transform="translate(-28.63 -9.33)" fill="#59692e"/><path d="M47.42,21.83s2.26-.13,2.09,1.5c0,0-3.63,4.87-3,6.12-0.4.78-4.69,2.29-3.78,4.17a8.74,8.74,0,0,1-1.35-5.54,3.36,3.36,0,0,0-1-2.93S39.18,20,43.79,18.37c1.25-.22,1.95-0.37,3.62,3.46" transform="translate(-28.63 -9.33)" fill="#59692e"/><path d="M45.91,21.37c0.29,3.15,1.91,10.84,1.74,14.78s1.92,4.91,0,17.92c-0.17,2.08-1.22,14.79-.7,19.22s0.87,11.23.52,12.71c-0.17-.89-1.22-13.68-2.26-17s-0.13-7.54-.13-8.73,0-9.46.13-12.71-0.52-4.14-.35-8.28a29.61,29.61,0,0,0-.3-8.08A95.3,95.3,0,0,1,43.3,19c0.17-1,2.32-.79,2.61,2.36" transform="translate(-28.63 -9.33)" fill="#59692e"/></svg>