<svg id="Layer_1" data-name="Layer 1" xmlns="http://www.w3.org/2000/svg" viewBox="0 0 56.17 50.87"><title>raspberry</title><path d="M39.21,52.82A7.35,7.35,0,1,0,32.35,45q0,0.24,0,.48a7.11,7.11,0,0,0,6.87,7.33" transform="translate(-11.48 -14.22)" fill="#607332"/><path d="M25.46,52.82a7.35,7.35,0,0,0,0-14.67,7.35,7.35,0,0,0,0,14.67" transform="translate(-11.48 -14.22)" fill="#607332"/><path d="M53,52.82A7.35,7.35,0,1,0,46.1,45q0,0.24,0,.48A7.11,7.11,0,0,0,53,52.82" transform="translate(-11.48 -14.22)" fill="#607332"/><path d="M32.33,65.07a7.35,7.35,0,0,0,0-14.67,7.35,7.35,0,0,0,0,14.67" transform="translate(-11.48 -14.22)" fill="#607332"/><path d="M46.08,65.07a7.35,7.35,0,1,0-6.85-7.81q0,0.24,0,.48a7.11,7.11,0,0,0,6.87,7.33" transform="translate(-11.48 -14.22)" fill="#607332"/><path d="M19.12,40.63a7.35,7.35,0,0,0,0-14.67,7.35,7.35,0,0,0,0,14.67" transform="translate(-11.48 -14.22)" fill="#607332"/><path d="M32.87,40.63a7.35,7.35,0,0,0,0-14.67,7.35,7.35,0,0,0,0,14.67" transform="translate(-11.48 -14.22)" fill="#607332"/><path d="M46.08,40.63a7.35,7.35,0,1,0-6.85-7.81q0,0.24,0,.48a7.11,7.11,0,0,0,6.87,7.33" transform="translate(-11.48 -14.22)" fill="#607332"/><path d="M59.83,40.63A7.35,7.35,0,1,0,53,32.82q0,0.24,0,.48a7.11,7.11,0,0,0,6.87,7.33" transform="translate(-11.48 -14.22)" fill="#607332"/><path d="M18.36,28.89a7.11,7.11,0,0,0,6.87-7.33,7.11,7.11,0,0,0-6.87-7.33,7.11,7.11,0,0,0-6.87,7.33,7.11,7.11,0,0,0,6.87,7.33" transform="translate(-11.48 -14.22)" fill="#607332"/><path d="M32.11,28.89A7.11,7.11,0,0,0,39,21.56a7.11,7.11,0,0,0-6.87-7.33,7.11,7.11,0,0,0-6.87,7.33,7.11,7.11,0,0,0,6.87,7.33" transform="translate(-11.48 -14.22)" fill="#607332"/><path d="M45.85,28.89a7.11,7.11,0,0,0,6.87-7.33,6.89,6.89,0,1,0-13.75,0,7.11,7.11,0,0,0,6.87,7.33" transform="translate(-11.48 -14.22)" fill="#607332"/><path d="M59.59,28.89a7.11,7.11,0,0,0,6.87-7.33,6.89,6.89,0,1,0-13.75,0,7.11,7.11,0,0,0,6.87,7.33" transform="translate(-11.48 -14.22)" fill="#607332"/></svg>