<svg id="Layer_1" data-name="Layer 1" xmlns="http://www.w3.org/2000/svg" viewBox="0 0 55.83 74.94"><title>strawberry</title><path d="M32.1,67.86S45.5,97,59.32,72.94c1.41-2.73,17-25.69,12.91-33.35,0.08-1-1.54-15.93-22-11.55-1.2-.13-19-6.07-27.52,7-0.89,3.09-9,13.12,9.42,32.84" transform="translate(-17.08 -7.53)" fill="#607332"/><path d="M44.68,8.47l2.57-.94s0,16.94-.43,18.3c1.74,0.5,8.38-.74,11.08,0s12.91,1,14.32-.29c-0.44,1.55-3.65,5.44-6.83,5.58-1.44.63-8.26,0.35-8.26,0.35s-1.94,3.84-4,4.09-3.78.41-4.21-1.19-1.26-4.55-2.62-4.73c-0.47.91-2.57,5.33-4.7,4.72a4.38,4.38,0,0,0-3.08,0s-3.26-3.27-1.6-3.85l1.38-1.91a16.48,16.48,0,0,0-9.59.6c-1.63.58-3.84,2.46-11.63-4,2-.27.17-0.58,6.88,0.09,2.43,0.28,15.26-.65,16.17-0.18s2.85,1,3.32.11,3.61-14,1.26-16.8" transform="translate(-17.08 -7.53)" fill="#a8bf50"/></svg>