<svg id="Layer_1" data-name="Layer 1" xmlns="http://www.w3.org/2000/svg" xmlns:xlink="http://www.w3.org/1999/xlink" viewBox="0 0 554.79 156.4"><defs><clipPath id="clip-path" transform="translate(-38.38 -19.62)"><rect x="180.84" y="81.96" width="90.2" height="94.04" fill="none"/></clipPath></defs><title>title-medium</title><g style="isolation:isolate"><g style="isolation:isolate"><path d="M63.65,101.75h7L95.24,159.1H86.17l-5.75-14.17H53.12L47.45,159.1H38.38Zm13.93,36.37L66.89,111.79H66.73L55.87,138.12H77.58Z" transform="translate(-38.38 -19.62)" fill="#a8bf50"/></g><g style="isolation:isolate"><path d="M108,101.75h7.78v50.06h26.33v7.29H108V101.75Z" transform="translate(-38.38 -19.62)" fill="#a8bf50"/><path d="M152,101.75h7.78v50.06h26.32v7.29H152V101.75Z" transform="translate(-38.38 -19.62)" fill="#a8bf50"/><path d="M222.33,160.55a30.91,30.91,0,0,1-12.07-2.31,28.07,28.07,0,0,1-9.44-6.36,29.36,29.36,0,0,1-6.16-9.56,32.94,32.94,0,0,1,0-23.81,29.38,29.38,0,0,1,6.16-9.56,28.09,28.09,0,0,1,9.44-6.36,32.7,32.7,0,0,1,24.14,0,28.11,28.11,0,0,1,9.44,6.36,29.39,29.39,0,0,1,6.16,9.56,32.94,32.94,0,0,1,0,23.81,29.37,29.37,0,0,1-6.16,9.56,28.09,28.09,0,0,1-9.44,6.36A30.91,30.91,0,0,1,222.33,160.55Zm0-7.29A20.84,20.84,0,0,0,238,146.54a21.61,21.61,0,0,0,4.37-7.25,26.33,26.33,0,0,0,0-17.74A21.63,21.63,0,0,0,238,114.3a21.48,21.48,0,0,0-31.43,0,21.57,21.57,0,0,0-4.37,7.25,26.33,26.33,0,0,0,0,17.74,21.55,21.55,0,0,0,4.37,7.25A20.84,20.84,0,0,0,222.33,153.26Z" transform="translate(-38.38 -19.62)" fill="#a8bf50"/><path d="M277.33,109H258.86v-7.29h44.71V109H285.1V159.1h-7.78V109Z" transform="translate(-38.38 -19.62)" fill="#a8bf50"/><path d="M313.21,101.75h11.58L343,145.16h0.32l18.06-43.42H373V159.1h-7.78V112H365L345.69,159.1H340.5L321.14,112H321V159.1h-7.78V101.75Z" transform="translate(-38.38 -19.62)" fill="#a8bf50"/><path d="M389.1,101.75h37V109H396.88v17.09h27.22v7.29H396.88v18.39h30.7v7.29H389.1V101.75Z" transform="translate(-38.38 -19.62)" fill="#a8bf50"/><path d="M440.54,101.75h10.21l31.59,47.14h0.16V101.75h7.78V159.1h-9.88L448.47,112h-0.16V159.1h-7.78V101.75Z" transform="translate(-38.38 -19.62)" fill="#a8bf50"/><path d="M518.94,109H500.48v-7.29h44.71V109H526.72V159.1h-7.78V109Z" transform="translate(-38.38 -19.62)" fill="#a8bf50"/></g><g style="isolation:isolate"><path d="M560.13,147.11a12.78,12.78,0,0,0,5.39,4.66,16.11,16.11,0,0,0,6.76,1.5,13.76,13.76,0,0,0,4-.61,12.08,12.08,0,0,0,3.69-1.82,10,10,0,0,0,2.71-3,8,8,0,0,0,1.05-4.13,6.19,6.19,0,0,0-2.11-5.06,18.22,18.22,0,0,0-5.22-2.92q-3.12-1.17-6.8-2.27a27.64,27.64,0,0,1-6.8-3,16.64,16.64,0,0,1-5.22-5.22q-2.11-3.28-2.11-8.87A15.27,15.27,0,0,1,560,105.8a19,19,0,0,1,6-3.93,22.45,22.45,0,0,1,8.87-1.58,31,31,0,0,1,9,1.3,15.45,15.45,0,0,1,7.53,5.26l-6.32,5.75a10.5,10.5,0,0,0-4.13-3.64,13.07,13.07,0,0,0-6.08-1.38,14.71,14.71,0,0,0-5.39.85,9.67,9.67,0,0,0-3.44,2.19,7.72,7.72,0,0,0-1.82,2.88,8.8,8.8,0,0,0-.53,2.83,7.22,7.22,0,0,0,2.11,5.59,16.36,16.36,0,0,0,5.22,3.16,63.14,63.14,0,0,0,6.8,2.19,29.15,29.15,0,0,1,6.8,2.71,15.85,15.85,0,0,1,5.22,4.7q2.1,3,2.11,8.14a17.14,17.14,0,0,1-1.58,7.45,16.52,16.52,0,0,1-4.25,5.59,18.87,18.87,0,0,1-6.32,3.48,24.45,24.45,0,0,1-7.78,1.21,28.28,28.28,0,0,1-10.45-1.94,17.17,17.17,0,0,1-7.86-6Z" transform="translate(-38.38 -19.62)" fill="#a8bf50"/></g></g><g style="isolation:isolate"><path d="M47.44,56.23H38.73V54.07h19.8v2.16H49.82V79.56H47.44V56.23Z" transform="translate(-38.38 -19.62)" fill="#a7a645"/><path d="M62.45,54.07h2.38V65.3H79.08V54.07h2.38V79.56H79.08V67.46H64.83v12.1H62.45V54.07Z" transform="translate(-38.38 -19.62)" fill="#a7a645"/><path d="M88.44,54.07H104v2.16H90.82V65.3H103.2v2.16H90.82V77.4h13.79v2.16H88.44V54.07Z" transform="translate(-38.38 -19.62)" fill="#a7a645"/></g><g style="isolation:isolate"><path d="M546.22,69.21a14.42,14.42,0,0,1,1-5.36,12.77,12.77,0,0,1,2.7-4.23,12.25,12.25,0,0,1,4.16-2.79,14.68,14.68,0,0,1,10.69,0,12.25,12.25,0,0,1,4.16,2.79,12.77,12.77,0,0,1,2.7,4.23,15.34,15.34,0,0,1,0,10.75,12.72,12.72,0,0,1-2.7,4.25,12,12,0,0,1-4.16,2.77,14.92,14.92,0,0,1-10.69,0,12,12,0,0,1-4.16-2.77,12.72,12.72,0,0,1-2.7-4.25A14.56,14.56,0,0,1,546.22,69.21Zm2.38,0a12.71,12.71,0,0,0,.76,4.43,10.5,10.5,0,0,0,2.16,3.56,10,10,0,0,0,3.4,2.38,12.06,12.06,0,0,0,9,0,10,10,0,0,0,3.4-2.38,10.5,10.5,0,0,0,2.16-3.56,13.35,13.35,0,0,0,0-8.86,10.51,10.51,0,0,0-2.16-3.56,10,10,0,0,0-3.4-2.38,12.07,12.07,0,0,0-9,0,10,10,0,0,0-3.4,2.38,10.51,10.51,0,0,0-2.16,3.56A12.71,12.71,0,0,0,548.6,69.21Z" transform="translate(-38.38 -19.62)" fill="#a7a645"/><path d="M577.9,56.47h15.26v2.16H580.28V67.7h12v2.16h-12V82H577.9V56.47Z" transform="translate(-38.38 -19.62)" fill="#a7a645"/></g><g style="isolation:isolate"><path d="M185.11,49.32V80.73a29,29,0,0,1-5.31,2.52,56.44,56.44,0,0,1-6.17,1.84,52.36,52.36,0,0,1-6.48,1.13,57,57,0,0,1-6.17.36,36.59,36.59,0,0,1-14.44-2.7,31,31,0,0,1-17.37-18,36,36,0,0,1-2.29-12.83,35,35,0,0,1,2.48-13.23,32.64,32.64,0,0,1,6.84-10.62,31.23,31.23,0,0,1,10.48-7.06,34.35,34.35,0,0,1,13.41-2.56q8.82,0,14.4,2.21a26.5,26.5,0,0,1,9.36,6.07l-6.12,6.57a22.66,22.66,0,0,0-8.37-5.26,28.85,28.85,0,0,0-9.27-1.49,23.16,23.16,0,0,0-17.46,7.47,24,24,0,0,0-4.86,8.05,28.24,28.24,0,0,0-1.71,9.85,26.32,26.32,0,0,0,1.89,10,24.86,24.86,0,0,0,5.22,8.06A24,24,0,0,0,151,76.54a24.55,24.55,0,0,0,9.81,1.93,42.35,42.35,0,0,0,8.69-.85,24.37,24.37,0,0,0,7-2.47V57.42H162.34v-8.1h22.77Z" transform="translate(-38.38 -19.62)" fill="#546238"/><path d="M200.86,21.24h22.41a26.21,26.21,0,0,1,10.08,1.67,17.15,17.15,0,0,1,6.25,4.23,14.42,14.42,0,0,1,3.2,5.76,22.73,22.73,0,0,1,.9,6.17,16.42,16.42,0,0,1-1.08,5.9,16.65,16.65,0,0,1-3.11,5.13,17.71,17.71,0,0,1-5,3.87A17.19,17.19,0,0,1,228,55.89L246.13,85h-10.8l-16.2-28.08H209.5V85h-8.64V21.24Zm8.64,28.08h11.34a31,31,0,0,0,5-.41,13.43,13.43,0,0,0,4.41-1.49,8.13,8.13,0,0,0,3.1-3.1,10.46,10.46,0,0,0,1.17-5.27,10.45,10.45,0,0,0-1.17-5.26,8.13,8.13,0,0,0-3.1-3.1,13.43,13.43,0,0,0-4.41-1.48,30.9,30.9,0,0,0-5-.41H209.5V49.32Z" transform="translate(-38.38 -19.62)" fill="#546238"/><path d="M285.11,86.58A34.35,34.35,0,0,1,271.7,84a31.2,31.2,0,0,1-10.49-7.06,32.62,32.62,0,0,1-6.84-10.62A34.93,34.93,0,0,1,251.9,53.1a34.94,34.94,0,0,1,2.47-13.23,32.64,32.64,0,0,1,6.84-10.62,31.22,31.22,0,0,1,10.49-7.06,36.34,36.34,0,0,1,26.82,0A31.25,31.25,0,0,1,309,29.25a32.68,32.68,0,0,1,6.84,10.62,35,35,0,0,1,2.48,13.23,35,35,0,0,1-2.48,13.23A32.66,32.66,0,0,1,309,76.95,31.23,31.23,0,0,1,298.51,84,34.35,34.35,0,0,1,285.11,86.58Zm0-8.1A23.16,23.16,0,0,0,302.57,71,24,24,0,0,0,307.42,63a29.25,29.25,0,0,0,0-19.71,24,24,0,0,0-4.86-8.05,23.86,23.86,0,0,0-34.92,0,24,24,0,0,0-4.86,8.05,29.25,29.25,0,0,0,0,19.71A24,24,0,0,0,267.65,71,23.16,23.16,0,0,0,285.11,78.48Z" transform="translate(-38.38 -19.62)" fill="#546238"/><path d="M322.63,21.24h9l14.08,50.94h0.18l15-50.94h9.9l15,50.94h0.18L400,21.24h9L390.49,85h-9.18l-15.39-52h-0.18l-15.3,52h-9.18Z" transform="translate(-38.38 -19.62)" fill="#546238"/><path d="M430.63,29.34H410.11v-8.1h49.68v8.1H439.27V85h-8.64V29.34Z" transform="translate(-38.38 -19.62)" fill="#546238"/><path d="M469,21.24h8.64V47.7h33V21.24h8.64V85h-8.64V55.8h-33V85H469V21.24Z" transform="translate(-38.38 -19.62)" fill="#546238"/></g><g clip-path="url(#clip-path)"><path d="M221.67,142.38a10,10,0,0,1-3.68-2.11c-0.32-.26-0.92-0.72-1.16-0.37-0.89,1.27-.24,2.79-0.42,4.19a1.23,1.23,0,0,0,.65,1.36,0.68,0.68,0,0,0,.58,0c1.4-.88,3.19-1.2,4-3.08m16.92-23.23c-0.7.2-1.82-.51-2.29,0.4s0.78,1.51,1,2.39a7.28,7.28,0,0,1,.69,1.19c0.32,2,1.14,1.49,2,.35a6.49,6.49,0,0,0,.6-1c1.56-3.14,1.46-3.32-2-3.32m0.4,13a4,4,0,0,0,1.49-.26c1.3-.72,3.26-1.46,3.3-2.7,0-1.5-2.06-1.92-3.34-2.65-1-.55-1.27-0.26-1.27.84a21.25,21.25,0,0,1-.18,4.77m-25.84,1.16a10,10,0,0,0-3,5.43,7.33,7.33,0,0,0,5.32.09,2.31,2.31,0,0,0,.46-0.14,18.63,18.63,0,0,1-2.82-5.38m0.07-14.13c-1,0-2.49-.38-2.92.57s0.44,2.15,1.07,3c0.44,0.61.55,1.79,1.44,1.77s0.9-1.17,1.28-1.84a10.76,10.76,0,0,0,.82-1.36c0.24-.62,1.15-1.07.75-1.83s-1.22-.22-1.84-0.33a3.91,3.91,0,0,0-.6,0m22.36-2.77c0-3.94-.32-4.18-3.24-2.65a6.07,6.07,0,0,0-1.18.67,2.43,2.43,0,0,0-1,1.21c0,0.61.8,0.46,1.21,0.7a7.7,7.7,0,0,1,2.46,1.6c0.89,1.12,1.38.44,1.66-.55a3.61,3.61,0,0,0,.1-1m-13.61-.74a5.6,5.6,0,0,0-2.3-1.84c-3.05-1.72-3.26-1.45-3.2,1.95v1.46c-0.05,1.19.27,1.53,1.35,0.82,1.3-.85,2.69-1.55,4.15-2.39m0.82,27.1a11.55,11.55,0,0,0,2.59,4.83c0.45,0.47.84,0.69,1.27,0.05,0.59-.87,1.17-1.75,1.7-2.67,0.73-1.26.86-2.11-1.06-2a11.47,11.47,0,0,1-4.5-.25m0.22-27.29h5c0.71,0,1.12-.32.78-1-0.77-1.44-1.12-3.71-2.73-3.88-1.28-.14-1.89,2-2.62,3.22a6.16,6.16,0,0,0-.42,1.61m12.7,23.1c1.32,0.93,2.65.76,3.95,0.71,1.48-.06,2.35-0.59,1.61-2.44a25.29,25.29,0,0,0-1.93-3c-0.38-.67-0.67-0.48-0.95.34a8.71,8.71,0,0,1-2.68,4.4M212.81,126a5.59,5.59,0,0,0-1.22.26c-1.41.68-3.33,1.34-3.4,3-0.06,1.27,1.92,1.74,3.06,2.46s1.66,0.61,1.57-.95,0-3,0-4.75M235,139.24c-1.29,1.78-3.18,2.44-5,3.17,0.34,1.29,1.43,1.58,2.2,2.1s2,1.42,2.78.82c0.6-.45.69-1.78,0.67-2.85a9,9,0,0,0-.67-3.24M229.59,82h0.8a1.36,1.36,0,0,0,.42,1.09,25.51,25.51,0,0,1,4.12,10.79A24.44,24.44,0,0,1,245.37,86c-1.21,2.51-.44,4.35,1.29,5.57,1.89,1.33,3.55-.06,5.2-1.14,1.17,4.26,0,8.28-.9,12.41a2.78,2.78,0,0,0,1.13,0c3-1.4,6.13-1.21,9.26-1.21a1.93,1.93,0,0,1,1.29.21c0.38,0.5-.13.95-0.42,1.43-1.61,2.63-.78,5.36,1.8,5.84a17.54,17.54,0,0,0,3,0,24.93,24.93,0,0,1-7.34,10.6A21.69,21.69,0,0,1,271,125c-2,.91-3.62,2.07-3.81,4.08-0.16,1.79,1.28,2.9,2.73,3.64,1.62,0.83.34,1.44-.18,1.77-3.11,2-6.34,3.67-10.24,4,3.32,2.41,5.17,5.75,7,9.11,0.42,0.78.73,1.51-.84,1.33a3.88,3.88,0,0,0-3.75,1.59,3.43,3.43,0,0,0,.19,4.42c1.21,1.45,0,1.44-.68,1.72a4.38,4.38,0,0,1-1.57.13,30.19,30.19,0,0,1-9.08-1.64c1.07,4.25,2.25,8.28.94,12.62-2.55-1.84-4.15-2.18-5.55-.83A4.62,4.62,0,0,0,245.1,172c-4.37-1.37-7.45-4.19-10.25-7.61-0.38,4.36-2.21,8.06-4.48,11.58h-0.8c-0.66-2.19-2.29-3.8-3.81-3.76-1.2,0-3.14,2.2-3.38,3.76h-1.2a1.54,1.54,0,0,0-.28-0.94,21.43,21.43,0,0,1-3.72-9.59c0-.25.1-0.59-0.26-0.68a0.88,0.88,0,0,0-.9.62c-2.35,3.28-5.63,5.12-9.22,6.74v-1.25c0-4.48-2.18-5.82-5.88-3.57-1.17.71-1.29,0.19-1.33-.89a28.49,28.49,0,0,1,1.52-11.28c-4.12,1.2-8,2.31-12.19,1.07,1.05-1.68,2.33-3.42,1.1-5.41s-3-2.52-5.28-1.46a25.9,25.9,0,0,1,7.45-10.88,15.9,15.9,0,0,1-4.55-1.05c-2.46-.86-4.48-2.55-6.82-3.62V133a3.77,3.77,0,0,0,3.55-3.12,3.57,3.57,0,0,0-2.2-4.08c-0.46-.23-0.9-0.49-1.35-0.74v-0.42c3.35-2.2,6.7-4.38,11.24-4.77-3.29-3.23-5.88-6.44-7.25-10.61,5.55,0.38,7.08-2.34,4-7.49a27.22,27.22,0,0,1,10.68.9c1.44,0.44,1.42.16,1-1.17a30.63,30.63,0,0,1-.82-11.28c1.82,1.14,3.35,2.59,5.48,1.42s1.32-3.57,1.71-5.57c3.86,1.91,7.26,4.05,9.72,7.51,1-.52.51-1.61,0.69-2.4,0.79-3.4,2.57-6.25,4.25-9.17H222c0.88,2,1.8,4,4.4,3.74,2.09-.23,2.72-1.94,3.19-3.74" transform="translate(-38.38 -19.62)" fill="#edda44"/><path d="M238.73,129c0,7.39-5.73,13.37-12.79,13.37s-12.79-6-12.79-13.37,5.73-13.35,12.79-13.35,12.79,6,12.79,13.37" transform="translate(-38.38 -19.62)" fill="#5b5121"/></g></svg>