<svg id="Layer_1" data-name="Layer 1" xmlns="http://www.w3.org/2000/svg" xmlns:xlink="http://www.w3.org/1999/xlink" viewBox="0 0 304.06 91.56"><defs><clipPath id="clip-path" transform="translate(-7.85 -10.16)"><rect x="82.83" y="49.45" width="50.11" height="52.24" fill="none"/></clipPath></defs><title>title-small</title><g style="isolation:isolate"><g style="isolation:isolate"><path d="M21.89,60.45H25.8L39.44,92.31h-5l-3.2-7.87H16l-3.15,7.88h-5Zm7.74,20.21L23.69,66H23.6l-6,14.63H29.63Z" transform="translate(-7.85 -10.16)" fill="#a8bf50"/></g><g style="isolation:isolate"><path d="M46.55,60.45h4.32V88.26H65.49v4H46.55V60.45Z" transform="translate(-7.85 -10.16)" fill="#a8bf50"/><path d="M70.89,60.45h4.32V88.26H89.84v4H70.89V60.45Z" transform="translate(-7.85 -10.16)" fill="#a8bf50"/><path d="M109.86,93.12a17.16,17.16,0,0,1-6.71-1.28,15.6,15.6,0,0,1-5.24-3.53A16.31,16.31,0,0,1,94.49,83a18.3,18.3,0,0,1,0-13.23,16.33,16.33,0,0,1,3.42-5.31,15.63,15.63,0,0,1,5.24-3.53,18.17,18.17,0,0,1,13.41,0,15.64,15.64,0,0,1,5.24,3.53,16.36,16.36,0,0,1,3.42,5.31,18.29,18.29,0,0,1,0,13.23,16.34,16.34,0,0,1-3.42,5.31,15.62,15.62,0,0,1-5.24,3.53A17.17,17.17,0,0,1,109.86,93.12Zm0-4a11.59,11.59,0,0,0,8.73-3.73,12,12,0,0,0,2.43-4,14.62,14.62,0,0,0,0-9.85,12,12,0,0,0-2.43-4,11.93,11.93,0,0,0-17.46,0,12,12,0,0,0-2.43,4,14.62,14.62,0,0,0,0,9.85,12,12,0,0,0,2.43,4A11.58,11.58,0,0,0,109.86,89.07Z" transform="translate(-7.85 -10.16)" fill="#a8bf50"/><path d="M140.33,64.5H130.07V60.45h24.84V64.5H144.65V92.31h-4.32V64.5Z" transform="translate(-7.85 -10.16)" fill="#a8bf50"/><path d="M160.17,60.45h6.43l10.13,24.12h0.18l10-24.12h6.44V92.31h-4.32V66.12H189L178.22,92.31h-2.88L164.58,66.12h-0.09V92.31h-4.32V60.45Z" transform="translate(-7.85 -10.16)" fill="#a8bf50"/><path d="M202.24,60.45h20.57V64.5H206.56V74h15.12V78H206.56V88.26h17.05v4H202.24V60.45Z" transform="translate(-7.85 -10.16)" fill="#a8bf50"/><path d="M230.73,60.45h5.67l17.55,26.19H254V60.45h4.32V92.31h-5.49L235.14,66.12H235V92.31h-4.32V60.45Z" transform="translate(-7.85 -10.16)" fill="#a8bf50"/><path d="M274.2,64.5H263.94V60.45h24.84V64.5H278.52V92.31H274.2V64.5Z" transform="translate(-7.85 -10.16)" fill="#a8bf50"/></g><g style="isolation:isolate"><path d="M294.22,85.65a7.1,7.1,0,0,0,3,2.59,8.94,8.94,0,0,0,3.76.83,7.66,7.66,0,0,0,2.21-.34,6.71,6.71,0,0,0,2-1,5.53,5.53,0,0,0,1.51-1.67,4.43,4.43,0,0,0,.58-2.29,3.44,3.44,0,0,0-1.17-2.81,10.14,10.14,0,0,0-2.9-1.62q-1.73-.65-3.78-1.26a15.36,15.36,0,0,1-3.78-1.69,9.24,9.24,0,0,1-2.9-2.9,9,9,0,0,1-1.17-4.93,8.49,8.49,0,0,1,2.52-5.85,10.58,10.58,0,0,1,3.35-2.18,12.48,12.48,0,0,1,4.93-.88,17.22,17.22,0,0,1,5,.72,8.59,8.59,0,0,1,4.18,2.92l-3.51,3.2a5.83,5.83,0,0,0-2.29-2,7.27,7.27,0,0,0-3.37-.76,8.18,8.18,0,0,0-3,.47,5.38,5.38,0,0,0-1.91,1.21,4.3,4.3,0,0,0-1,1.6,4.89,4.89,0,0,0-.29,1.58,4,4,0,0,0,1.17,3.1,9,9,0,0,0,2.9,1.75,34.94,34.94,0,0,0,3.78,1.22,16.18,16.18,0,0,1,3.78,1.51,8.81,8.81,0,0,1,2.9,2.61,7.68,7.68,0,0,1,1.17,4.52A9.52,9.52,0,0,1,311,87.4a9.18,9.18,0,0,1-2.36,3.11,10.49,10.49,0,0,1-3.51,1.93,13.57,13.57,0,0,1-4.32.67A15.71,15.71,0,0,1,295,92a9.55,9.55,0,0,1-4.37-3.33Z" transform="translate(-7.85 -10.16)" fill="#a8bf50"/></g></g><g style="isolation:isolate"><path d="M12.88,30.5H8V29.3H19v1.2H14.2v13H12.88v-13Z" transform="translate(-7.85 -10.16)" fill="#a7a645"/><path d="M21.22,29.3h1.32v6.24h7.92V29.3h1.32V43.46H30.46V36.74H22.54v6.72H21.22V29.3Z" transform="translate(-7.85 -10.16)" fill="#a7a645"/><path d="M35.66,29.3h8.66v1.2H37v5h6.88v1.2H37v5.52h7.66v1.2h-9V29.3Z" transform="translate(-7.85 -10.16)" fill="#a7a645"/></g><g style="isolation:isolate"><path d="M285.2,36.38a8,8,0,0,1,.54-3,7.1,7.1,0,0,1,1.5-2.35,6.8,6.8,0,0,1,2.31-1.55,8.16,8.16,0,0,1,5.94,0A6.8,6.8,0,0,1,297.8,31a7.1,7.1,0,0,1,1.5,2.35,8,8,0,0,1,.54,3,8.1,8.1,0,0,1-.54,3,7.07,7.07,0,0,1-1.5,2.36,6.68,6.68,0,0,1-2.31,1.54,8.28,8.28,0,0,1-5.94,0,6.68,6.68,0,0,1-2.31-1.54,7.07,7.07,0,0,1-1.5-2.36A8.1,8.1,0,0,1,285.2,36.38Zm1.32,0a7.05,7.05,0,0,0,.42,2.46,5.85,5.85,0,0,0,1.2,2A5.54,5.54,0,0,0,290,42.14a6.69,6.69,0,0,0,5,0,5.54,5.54,0,0,0,1.89-1.32,5.85,5.85,0,0,0,1.2-2,7.42,7.42,0,0,0,0-4.92,5.83,5.83,0,0,0-1.2-2A5.55,5.55,0,0,0,295,30.62a6.69,6.69,0,0,0-5,0,5.54,5.54,0,0,0-1.89,1.32,5.83,5.83,0,0,0-1.2,2A7.05,7.05,0,0,0,286.52,36.38Z" transform="translate(-7.85 -10.16)" fill="#a7a645"/><path d="M302.8,29.3h8.48v1.2h-7.16v5h6.66v1.2h-6.66v6.72H302.8V29.3Z" transform="translate(-7.85 -10.16)" fill="#a7a645"/></g><g style="isolation:isolate"><path d="M90.22,26.66V44.11a16.11,16.11,0,0,1-3,1.4,31.33,31.33,0,0,1-3.42,1,29.35,29.35,0,0,1-3.6.63,31.7,31.7,0,0,1-3.43.2,20.32,20.32,0,0,1-8-1.5,17.22,17.22,0,0,1-9.65-10,20,20,0,0,1-1.27-7.12,19.39,19.39,0,0,1,1.38-7.35,18.13,18.13,0,0,1,3.8-5.9,17.35,17.35,0,0,1,5.83-3.92,19.07,19.07,0,0,1,7.45-1.42,22.06,22.06,0,0,1,8,1.22,14.73,14.73,0,0,1,5.2,3.38l-3.4,3.65a12.58,12.58,0,0,0-4.65-2.92,16,16,0,0,0-5.15-.83,12.87,12.87,0,0,0-9.7,4.15,13.32,13.32,0,0,0-2.7,4.48,15.68,15.68,0,0,0-1,5.47,14.62,14.62,0,0,0,1,5.58,13.81,13.81,0,0,0,2.9,4.47,13.36,13.36,0,0,0,4.35,3,13.65,13.65,0,0,0,5.45,1.08,23.53,23.53,0,0,0,4.83-.48A13.51,13.51,0,0,0,85.42,41V31.16H77.57v-4.5H90.22Z" transform="translate(-7.85 -10.16)" fill="#546238"/><path d="M99,11.05h12.45A14.55,14.55,0,0,1,117,12a9.52,9.52,0,0,1,3.47,2.35,8,8,0,0,1,1.78,3.2,12.67,12.67,0,0,1,.5,3.42,9.12,9.12,0,0,1-.6,3.28,9.26,9.26,0,0,1-1.72,2.85,9.87,9.87,0,0,1-2.75,2.15,9.58,9.58,0,0,1-3.62,1.07l10,16.15h-6l-9-15.6h-5.35v15.6H99V11.05Zm4.8,15.6h6.3a17.11,17.11,0,0,0,2.77-.23,7.45,7.45,0,0,0,2.45-.82A4.52,4.52,0,0,0,117,23.88a5.8,5.8,0,0,0,.65-2.92A5.8,5.8,0,0,0,117,18a4.52,4.52,0,0,0-1.72-1.73,7.45,7.45,0,0,0-2.45-.82,17.11,17.11,0,0,0-2.77-.23h-6.3v11.4Z" transform="translate(-7.85 -10.16)" fill="#546238"/><path d="M145.77,47.36a19.08,19.08,0,0,1-7.45-1.43A17.33,17.33,0,0,1,132.49,42a18.13,18.13,0,0,1-3.8-5.9,19.41,19.41,0,0,1-1.37-7.35,19.41,19.41,0,0,1,1.38-7.35,18.15,18.15,0,0,1,3.8-5.9,17.36,17.36,0,0,1,5.82-3.92,20.19,20.19,0,0,1,14.9,0A17.37,17.37,0,0,1,159,15.51a18.16,18.16,0,0,1,3.8,5.9,19.43,19.43,0,0,1,1.38,7.35,19.43,19.43,0,0,1-1.37,7.35A18.14,18.14,0,0,1,159,42a17.34,17.34,0,0,1-5.83,3.92A19.08,19.08,0,0,1,145.77,47.36Zm0-4.5a12.87,12.87,0,0,0,9.7-4.15,13.35,13.35,0,0,0,2.7-4.47,16.25,16.25,0,0,0,0-11,13.37,13.37,0,0,0-2.7-4.48,13.26,13.26,0,0,0-19.4,0,13.33,13.33,0,0,0-2.7,4.48,16.25,16.25,0,0,0,0,11,13.32,13.32,0,0,0,2.7,4.47A12.87,12.87,0,0,0,145.77,42.86Z" transform="translate(-7.85 -10.16)" fill="#546238"/><path d="M166.62,11.05h5l7.82,28.3h0.1l8.33-28.3h5.5l8.32,28.3h0.1l7.83-28.3h5l-10.3,35.4h-5.1l-8.55-28.9h-0.1l-8.5,28.9H177Z" transform="translate(-7.85 -10.16)" fill="#546238"/><path d="M226.62,15.55h-11.4v-4.5h27.6v4.5h-11.4v30.9h-4.8V15.55Z" transform="translate(-7.85 -10.16)" fill="#546238"/><path d="M247.92,11.05h4.8v14.7h18.35V11.05h4.8v35.4h-4.8V30.26H252.72v16.2h-4.8V11.05Z" transform="translate(-7.85 -10.16)" fill="#546238"/></g><g clip-path="url(#clip-path)"><path d="M105.51,83a5.58,5.58,0,0,1-2-1.17c-0.18-.14-0.51-0.4-0.65-0.21-0.49.7-.13,1.55-0.23,2.33a0.69,0.69,0,0,0,.36.76,0.38,0.38,0,0,0,.32,0c0.78-.49,1.77-0.67,2.24-1.71m9.4-12.9c-0.39.11-1-.28-1.27,0.22s0.44,0.84.57,1.33a4,4,0,0,1,.38.66c0.18,1.1.63,0.83,1.11,0.2a3.6,3.6,0,0,0,.33-0.57c0.87-1.74.81-1.84-1.12-1.84m0.22,7.2a2.2,2.2,0,0,0,.83-0.14c0.72-.4,1.81-0.81,1.83-1.5s-1.14-1.06-1.86-1.47c-0.53-.31-0.7-0.14-0.7.47a11.81,11.81,0,0,1-.1,2.65M100.82,78a5.53,5.53,0,0,0-1.65,3,4.07,4.07,0,0,0,3,.05l0.26-.08a10.35,10.35,0,0,1-1.56-3m0-7.85c-0.57,0-1.39-.21-1.62.32a2.09,2.09,0,0,0,.59,1.68c0.25,0.34.31,1,.8,1s0.5-.65.71-1a6,6,0,0,0,.46-0.75c0.14-.35.64-0.6,0.41-1s-0.68-.12-1-0.18h-0.33m12.42-1.54c0-2.19-.18-2.32-1.8-1.47a3.37,3.37,0,0,0-.66.37,1.35,1.35,0,0,0-.56.67c0,0.34.45,0.25,0.67,0.39a4.28,4.28,0,0,1,1.37.89c0.5,0.62.77,0.24,0.92-.3a2,2,0,0,0,.06-0.55m-7.6-.44a3.11,3.11,0,0,0-1.28-1c-1.7-1-1.81-.81-1.78,1.08v0.81c0,0.66.15,0.85,0.75,0.46s1.49-.86,2.31-1.33m0.46,15.05a6.42,6.42,0,0,0,1.44,2.68c0.25,0.26.47,0.39,0.71,0s0.65-1,.95-1.48c0.4-.7.48-1.17-0.59-1.09a6.37,6.37,0,0,1-2.5-.14m0.12-15.16h2.78c0.39,0,.62-0.18.43-0.53-0.43-.8-0.62-2.06-1.52-2.16-0.71-.08-1,1.1-1.46,1.79a3.42,3.42,0,0,0-.23.89m7,12.8a3.17,3.17,0,0,0,2.19.39c0.82,0,1.31-.33.9-1.36a14.05,14.05,0,0,0-1.09-1.66c-0.21-.37-0.37-0.27-0.53.19a4.84,4.84,0,0,1-1.47,2.44m-12.69-6.93a3.11,3.11,0,0,0-.68.15c-0.79.38-1.85,0.75-1.89,1.65,0,0.71,1.06,1,1.7,1.37s0.92,0.34.87-.53,0-1.69,0-2.64m12.3,7.33A5.67,5.67,0,0,1,110.15,83a2.08,2.08,0,0,0,1.16,1.17c0.45,0.3,1.1.79,1.55,0.45a2.17,2.17,0,0,0,.37-1.58,5,5,0,0,0-.37-1.8m-3-31.81h0.45a0.76,0.76,0,0,0,.23.61,14.17,14.17,0,0,1,2.29,6,13.58,13.58,0,0,1,5.8-4.36,2.24,2.24,0,0,0,.7,3.09h0c1.05,0.74,2,0,2.89-.63,0.65,2.37,0,4.6-.5,6.9a1.55,1.55,0,0,0,.63,0,11.49,11.49,0,0,1,5.14-.67,1.07,1.07,0,0,1,.72.12c0.21,0.28-.07.53-0.23,0.79-0.9,1.46-.43,3,1,3.24a9.74,9.74,0,0,0,1.7,0,13.85,13.85,0,0,1-4.08,5.89,12,12,0,0,1,6.28,2.94c-1.14.51-2,1.15-2.11,2.27a2.2,2.2,0,0,0,1.51,2c0.9,0.46.19,0.8-.1,1a12.26,12.26,0,0,1-5.69,2.21,14,14,0,0,1,3.89,5.06c0.24,0.43.4,0.84-.47,0.74a2.16,2.16,0,0,0-2.08.89A1.91,1.91,0,0,0,128,90c0.67,0.81,0,.8-0.38,1a2.44,2.44,0,0,1-.87.07,16.77,16.77,0,0,1-5-.91c0.59,2.36,1.25,4.6.52,7-1.42-1-2.31-1.21-3.08-.46a2.57,2.57,0,0,0-.6,2.84,12,12,0,0,1-5.7-4.23,14,14,0,0,1-2.53,6.4h-0.44a2.61,2.61,0,0,0-2.12-2.09,2.89,2.89,0,0,0-1.88,2.09H105.2a0.85,0.85,0,0,0-.15-0.52A11.91,11.91,0,0,1,103,95.87c0-.14.05-0.33-0.15-0.38a0.49,0.49,0,0,0-.5.35,11.82,11.82,0,0,1-5,3.71V98.86c0-2.49-1.21-3.24-3.27-2-0.65.39-.72,0.11-0.74-0.5a15.83,15.83,0,0,1,.84-6.27c-2.29.67-4.46,1.28-6.77,0.6,0.59-.93,1.3-1.9.61-3a2.1,2.1,0,0,0-2.84-.86l-0.09,0a14.39,14.39,0,0,1,4.14-6,8.83,8.83,0,0,1-2.53-.59c-1.37-.48-2.49-1.42-3.79-2V77.78a2.09,2.09,0,0,0,2-1.73,2,2,0,0,0-1.22-2.27l-0.75-.41V73.14c1.86-1.22,3.72-2.43,6.24-2.65a14.63,14.63,0,0,1-4-5.9c3.09,0.21,3.93-1.3,2.23-4.16a15.12,15.12,0,0,1,5.93.5c0.8,0.24.79,0.09,0.57-.65A17,17,0,0,1,93.31,54c1,0.63,1.86,1.44,3,.79s0.8-2,1-3.08a13.67,13.67,0,0,1,5.4,4.17c0.57-.29.28-0.9,0.39-1.33a18.9,18.9,0,0,1,2.36-5.1h0.22c0.49,1.11,1,2.24,2.45,2.08,1.16-.13,1.51-1.08,1.77-2.08" transform="translate(-7.85 -10.16)" fill="#edda44"/><path d="M115,75.57a7.11,7.11,0,1,1-7.1-7.43,7.27,7.27,0,0,1,7.1,7.43" transform="translate(-7.85 -10.16)" fill="#5b5121"/></g></svg>