<svg id="Layer_1" data-name="Layer 1" xmlns="http://www.w3.org/2000/svg" xmlns:xlink="http://www.w3.org/1999/xlink" viewBox="0 0 619.21 165.2"><defs><clipPath id="clip-path" transform="translate(-32.19 -10.73)"><rect x="191.85" y="67.14" width="104.4" height="108.84" fill="none"/></clipPath></defs><title>title-large</title><g style="isolation:isolate"><g style="isolation:isolate"><path d="M60.27,90.91H68.1l27.27,63.72H85.29L78.9,138.88H48.57l-6.3,15.75H32.19Zm15.48,40.41L63.87,102.07H63.69L51.63,131.32H75.75Z" transform="translate(-32.19 -10.73)" fill="#a8bf50"/></g><g style="isolation:isolate"><path d="M115,90.91h8.64v55.62h29.25v8.1H115V90.91Z" transform="translate(-32.19 -10.73)" fill="#a8bf50"/><path d="M163.49,90.91h8.64v55.62h29.25v8.1H163.49V90.91Z" transform="translate(-32.19 -10.73)" fill="#a8bf50"/><path d="M241.25,156.25a34.35,34.35,0,0,1-13.41-2.57,31.2,31.2,0,0,1-10.49-7.06A32.62,32.62,0,0,1,210.51,136a36.6,36.6,0,0,1,0-26.46,32.64,32.64,0,0,1,6.84-10.62,31.23,31.23,0,0,1,10.49-7.06,36.33,36.33,0,0,1,26.82,0,31.25,31.25,0,0,1,10.49,7.06A32.68,32.68,0,0,1,272,109.54,36.59,36.59,0,0,1,272,136a32.66,32.66,0,0,1-6.84,10.62,31.23,31.23,0,0,1-10.49,7.06A34.35,34.35,0,0,1,241.25,156.25Zm0-8.1a23.16,23.16,0,0,0,17.46-7.47,24,24,0,0,0,4.86-8.05,29.25,29.25,0,0,0,0-19.71,24,24,0,0,0-4.86-8.05,23.86,23.86,0,0,0-34.92,0,24,24,0,0,0-4.86,8.05,29.25,29.25,0,0,0,0,19.71,24,24,0,0,0,4.86,8.05A23.16,23.16,0,0,0,241.25,148.15Z" transform="translate(-32.19 -10.73)" fill="#a8bf50"/><path d="M302,99H281.48v-8.1h49.68V99H310.64v55.62H302V99Z" transform="translate(-32.19 -10.73)" fill="#a8bf50"/><path d="M341.51,90.91h12.87l20.25,48.24H375l20.07-48.24h12.87v63.72h-8.64V102.25h-0.18L377.6,154.63h-5.76l-21.51-52.38h-0.18v52.38h-8.64V90.91Z" transform="translate(-32.19 -10.73)" fill="#a8bf50"/><path d="M425.48,90.91h41.13V99H434.12v19h30.24v8.1H434.12v20.43h34.11v8.1H425.48V90.91Z" transform="translate(-32.19 -10.73)" fill="#a8bf50"/><path d="M482.27,90.91h11.34l35.1,52.38h0.18V90.91h8.64v63.72h-11l-35.46-52.38h-0.18v52.38h-8.64V90.91Z" transform="translate(-32.19 -10.73)" fill="#a8bf50"/><path d="M569,99H548.5v-8.1h49.68V99H577.67v55.62H569V99Z" transform="translate(-32.19 -10.73)" fill="#a8bf50"/></g><g style="isolation:isolate"><path d="M614.78,141.31a14.19,14.19,0,0,0,6,5.18,17.89,17.89,0,0,0,7.51,1.66,15.29,15.29,0,0,0,4.41-.67,13.43,13.43,0,0,0,4.09-2,11.07,11.07,0,0,0,3-3.33,8.87,8.87,0,0,0,1.17-4.59,6.88,6.88,0,0,0-2.34-5.62,20.24,20.24,0,0,0-5.81-3.24q-3.47-1.3-7.56-2.52a30.68,30.68,0,0,1-7.56-3.37,18.47,18.47,0,0,1-5.8-5.8q-2.34-3.64-2.34-9.85a17,17,0,0,1,5-11.7A21.09,21.09,0,0,1,621.3,91a25,25,0,0,1,9.85-1.75,34.42,34.42,0,0,1,10,1.44,17.17,17.17,0,0,1,8.37,5.85l-7,6.39a11.66,11.66,0,0,0-4.59-4,14.53,14.53,0,0,0-6.75-1.53,16.36,16.36,0,0,0-6,.95,10.75,10.75,0,0,0-3.83,2.43,8.58,8.58,0,0,0-2,3.2,9.78,9.78,0,0,0-.58,3.15,8,8,0,0,0,2.34,6.21,18.18,18.18,0,0,0,5.81,3.51,70,70,0,0,0,7.56,2.43,32.4,32.4,0,0,1,7.56,3,17.62,17.62,0,0,1,5.8,5.22q2.34,3.29,2.34,9a19,19,0,0,1-1.75,8.28,18.37,18.37,0,0,1-4.72,6.21,21,21,0,0,1-7,3.87,27.14,27.14,0,0,1-8.64,1.35,31.41,31.41,0,0,1-11.61-2.16,19.08,19.08,0,0,1-8.73-6.66Z" transform="translate(-32.19 -10.73)" fill="#a8bf50"/></g></g><g style="isolation:isolate"><path d="M73.45,56.15H66.61v-2.7H83.17v2.7H76.33V74.69H73.45V56.15Z" transform="translate(-32.19 -10.73)" fill="#a7a645"/><path d="M86.23,53.45h2.88v8.82h11V53.45H103V74.69h-2.88V65h-11v9.72H86.23V53.45Z" transform="translate(-32.19 -10.73)" fill="#a7a645"/><path d="M108.46,53.45h13.71v2.7H111.34v6.33h10.08v2.7H111.34V72h11.37v2.7H108.46V53.45Z" transform="translate(-32.19 -10.73)" fill="#a7a645"/></g><g style="isolation:isolate"><path d="M622.84,75.23a11.46,11.46,0,0,1-4.47-.85,10.4,10.4,0,0,1-3.5-2.35,10.88,10.88,0,0,1-2.28-3.54,12.2,12.2,0,0,1,0-8.82,10.89,10.89,0,0,1,2.28-3.54,10.4,10.4,0,0,1,3.5-2.35,12.11,12.11,0,0,1,8.94,0,10.42,10.42,0,0,1,3.5,2.35,10.89,10.89,0,0,1,2.28,3.54,12.2,12.2,0,0,1,0,8.82A10.88,10.88,0,0,1,630.8,72a10.42,10.42,0,0,1-3.5,2.35A11.46,11.46,0,0,1,622.84,75.23Zm0-2.7A7.72,7.72,0,0,0,628.66,70a8,8,0,0,0,1.62-2.69,9.75,9.75,0,0,0,0-6.57,8,8,0,0,0-1.62-2.69,8,8,0,0,0-11.64,0,8,8,0,0,0-1.62,2.69,9.75,9.75,0,0,0,0,6.57A8,8,0,0,0,617,70,7.72,7.72,0,0,0,622.84,72.53Z" transform="translate(-32.19 -10.73)" fill="#a7a645"/><path d="M638,53.45H651.4v2.7H640.93v6.66h9.75v2.7h-9.75v9.18H638V53.45Z" transform="translate(-32.19 -10.73)" fill="#a7a645"/></g><g style="isolation:isolate"><path d="M215.48,42.41v33.5a30.94,30.94,0,0,1-5.66,2.69,60.16,60.16,0,0,1-6.58,2,56.1,56.1,0,0,1-6.91,1.2,60.86,60.86,0,0,1-6.58.38,39,39,0,0,1-15.41-2.88,33.05,33.05,0,0,1-18.53-19.15,38.39,38.39,0,0,1-2.45-13.68A37.28,37.28,0,0,1,156,32.33,34.82,34.82,0,0,1,163.3,21a33.29,33.29,0,0,1,11.18-7.54,36.63,36.63,0,0,1,14.3-2.74q9.41,0,15.36,2.35a28.27,28.27,0,0,1,10,6.48l-6.53,7A24.16,24.16,0,0,0,198.68,21a30.79,30.79,0,0,0-9.89-1.58,24.71,24.71,0,0,0-18.62,8A25.59,25.59,0,0,0,165,35.93a30.13,30.13,0,0,0-1.82,10.51,28.08,28.08,0,0,0,2,10.7,26.51,26.51,0,0,0,5.57,8.59,25.64,25.64,0,0,0,8.35,5.71,26.18,26.18,0,0,0,10.46,2.06,45.17,45.17,0,0,0,9.26-.91A26,26,0,0,0,206.26,70V51H191.19V42.41h24.29Z" transform="translate(-32.19 -10.73)" fill="#546238"/><path d="M232.28,12.46h23.9a28,28,0,0,1,10.75,1.78,18.3,18.3,0,0,1,6.67,4.51A15.39,15.39,0,0,1,277,24.89a24.28,24.28,0,0,1,1,6.58,17.51,17.51,0,0,1-1.15,6.29,17.75,17.75,0,0,1-3.31,5.47,18.91,18.91,0,0,1-5.28,4.13,18.37,18.37,0,0,1-7,2.06l19.3,31H269l-17.28-30H241.49v30h-9.22v-68Zm9.22,30h12.1a33,33,0,0,0,5.33-.43,14.31,14.31,0,0,0,4.7-1.58,8.67,8.67,0,0,0,3.31-3.31,11.15,11.15,0,0,0,1.25-5.62,11.15,11.15,0,0,0-1.25-5.62,8.67,8.67,0,0,0-3.31-3.31,14.34,14.34,0,0,0-4.7-1.58,33,33,0,0,0-5.33-.43h-12.1V42.41Z" transform="translate(-32.19 -10.73)" fill="#546238"/><path d="M322.13,82.15a36.64,36.64,0,0,1-14.3-2.74,33.28,33.28,0,0,1-11.18-7.54,34.79,34.79,0,0,1-7.3-11.33,37.27,37.27,0,0,1-2.64-14.11,37.28,37.28,0,0,1,2.64-14.11A34.82,34.82,0,0,1,296.64,21a33.29,33.29,0,0,1,11.18-7.54,38.76,38.76,0,0,1,28.61,0A33.34,33.34,0,0,1,347.62,21a34.85,34.85,0,0,1,7.29,11.33,37.3,37.3,0,0,1,2.64,14.11,37.29,37.29,0,0,1-2.64,14.11,34.82,34.82,0,0,1-7.29,11.33,33.32,33.32,0,0,1-11.18,7.54A36.65,36.65,0,0,1,322.13,82.15Zm0-8.64a24.7,24.7,0,0,0,18.62-8A25.62,25.62,0,0,0,345.94,57a31.2,31.2,0,0,0,0-21,25.65,25.65,0,0,0-5.18-8.59,25.46,25.46,0,0,0-37.25,0,25.59,25.59,0,0,0-5.18,8.59,31.21,31.21,0,0,0,0,21,25.56,25.56,0,0,0,5.18,8.59A24.7,24.7,0,0,0,322.13,73.51Z" transform="translate(-32.19 -10.73)" fill="#546238"/><path d="M362.16,12.46h9.6l15,54.34H387l16-54.34h10.56l16,54.34h0.19l15-54.34h9.6l-19.78,68h-9.79L408.34,24.94h-0.19L391.83,80.42H382Z" transform="translate(-32.19 -10.73)" fill="#546238"/><path d="M477.36,21.1H455.47V12.46h53V21.1H486.58V80.42h-9.22V21.1Z" transform="translate(-32.19 -10.73)" fill="#546238"/><path d="M518.26,12.46h9.22V40.68H562.7V12.46h9.22v68H562.7V49.32H527.47v31.1h-9.22v-68Z" transform="translate(-32.19 -10.73)" fill="#546238"/></g><g clip-path="url(#clip-path)"><path d="M239.1,137.08a11.62,11.62,0,0,1-4.26-2.44c-0.37-.3-1.06-0.83-1.34-0.43-1,1.47-.28,3.23-0.49,4.85a1.43,1.43,0,0,0,.75,1.58,0.79,0.79,0,0,0,.67,0c1.62-1,3.69-1.39,4.66-3.57m19.58-26.88c-0.81.23-2.1-.59-2.65,0.47s0.91,1.75,1.18,2.77c0.13,0.49.7,0.73,0.8,1.38,0.37,2.28,1.32,1.72,2.32.41A7.51,7.51,0,0,0,261,114c1.81-3.63,1.69-3.84-2.34-3.84m0.46,15a4.58,4.58,0,0,0,1.73-.3c1.51-.83,3.78-1.69,3.82-3.12,0.05-1.74-2.38-2.22-3.87-3.07-1.11-.64-1.47-0.3-1.47,1a24.6,24.6,0,0,1-.21,5.52m-29.9,1.35a11.52,11.52,0,0,0-3.44,6.28,8.48,8.48,0,0,0,6.16.11c0.13-.05.27-0.08,0.53-0.16a21.56,21.56,0,0,1-3.26-6.22m0.11-16.45c-1.19.06-2.89-.44-3.38,0.67s0.51,2.49,1.23,3.49c0.51,0.71.64,2.08,1.67,2s1-1.36,1.49-2.12a12.45,12.45,0,0,0,1-1.57c0.28-.72,1.33-1.24.86-2.11s-1.41-.25-2.13-0.38a4.52,4.52,0,0,0-.69,0m25.88-3.21c0-4.56-.37-4.83-3.74-3.07a7,7,0,0,0-1.37.78A2.81,2.81,0,0,0,249,106c0,0.71.93,0.53,1.4,0.81a8.91,8.91,0,0,1,2.85,1.85c1,1.3,1.6.51,1.92-.63a4.17,4.17,0,0,0,.12-1.15M239.44,106a6.48,6.48,0,0,0-2.66-2.13c-3.53-2-3.78-1.68-3.71,2.25v1.69c-0.06,1.38.31,1.77,1.56,0.95,1.51-1,3.11-1.8,4.81-2.76m1,31.36a13.37,13.37,0,0,0,3,5.59c0.52,0.54,1,.8,1.47.06,0.68-1,1.36-2,2-3.09,0.84-1.46,1-2.44-1.23-2.27a13.27,13.27,0,0,1-5.21-.29m0.25-31.59h5.78c0.82,0,1.29-.37.9-1.1-0.9-1.66-1.3-4.3-3.16-4.49-1.49-.16-2.18,2.29-3,3.72a7.13,7.13,0,0,0-.48,1.86m14.7,26.73c1.53,1.08,3.07.89,4.57,0.82,1.71-.07,2.72-0.68,1.87-2.82-0.53-1.35-1.55-2.28-2.23-3.49-0.44-.78-0.78-0.56-1.1.39a10.08,10.08,0,0,1-3.11,5.09m-26.61-14.33a6.47,6.47,0,0,0-1.41.3c-1.64.78-3.85,1.56-3.93,3.43-0.07,1.47,2.22,2,3.55,2.85s1.92,0.71,1.82-1.09,0-3.53,0-5.49m25.63,15.27c-1.5,2.06-3.68,2.83-5.77,3.67,0.4,1.5,1.66,1.83,2.54,2.43s2.28,1.65,3.22.94c0.7-.52.8-2.06,0.78-3.3a10.37,10.37,0,0,0-.77-3.75m-6.23-66.26h0.92a1.58,1.58,0,0,0,.48,1.27,29.52,29.52,0,0,1,4.77,12.49,28.28,28.28,0,0,1,12.08-9.09c-1.4,2.9-.51,5,1.5,6.45,2.19,1.54,4.11-.07,6-1.32,1.36,4.93,0,9.58-1,14.36a3.22,3.22,0,0,0,1.31,0c3.44-1.63,7.09-1.41,10.72-1.4a2.23,2.23,0,0,1,1.49.25c0.44,0.58-.14,1.1-0.48,1.65-1.86,3-.9,6.21,2.08,6.76a20.3,20.3,0,0,0,3.53,0,28.85,28.85,0,0,1-8.5,12.27,25.11,25.11,0,0,1,13.09,6.11c-2.37,1.06-4.19,2.4-4.4,4.73-0.19,2.08,1.49,3.35,3.15,4.21,1.88,1,.4,1.67-0.21,2.05-3.6,2.29-7.34,4.25-11.85,4.6,3.84,2.79,6,6.66,8.09,10.54,0.49,0.9.84,1.75-1,1.54a4.49,4.49,0,0,0-4.34,1.84,4,4,0,0,0,.21,5.12c1.4,1.68,0,1.67-.79,2a5.07,5.07,0,0,1-1.82.15,34.94,34.94,0,0,1-10.51-1.9c1.24,4.91,2.6,9.58,1.09,14.6-3-2.13-4.81-2.53-6.42-1a5.35,5.35,0,0,0-1.24,5.92c-5.06-1.58-8.62-4.85-11.87-8.81-0.44,5-2.56,9.33-5.19,13.4h-0.89c-0.77-2.54-2.65-4.4-4.41-4.35-1.38,0-3.64,2.55-3.91,4.35h-1.39a1.78,1.78,0,0,0-.32-1.09,25,25,0,0,1-4.31-11.1c0-.29.11-0.69-0.31-0.79a1,1,0,0,0-1,.72c-2.72,3.79-6.51,5.93-10.67,7.8V170c0-5.19-2.53-6.74-6.81-4.14-1.35.82-1.5,0.22-1.53-1a33,33,0,0,1,1.76-13.06c-4.77,1.39-9.29,2.67-14.11,1.24,1.22-1.94,2.7-4,1.27-6.26s-3.43-2.91-6.11-1.69c1.74-5.16,4.75-9,8.63-12.6a18.4,18.4,0,0,1-5.27-1.22c-2.85-1-5.19-3-7.89-4.19v-1A4.36,4.36,0,0,0,196,122.5a4.13,4.13,0,0,0-2.55-4.72c-0.53-.26-1-0.57-1.56-0.86v-0.44c3.88-2.54,7.76-5.07,13-5.52-3.8-3.73-6.8-7.45-8.39-12.28,6.43,0.44,8.19-2.71,4.65-8.67a31.5,31.5,0,0,1,12.36,1c1.66,0.51,1.65.18,1.2-1.36a35.46,35.46,0,0,1-.95-13.06c2.1,1.32,3.88,3,6.35,1.64s1.53-4.14,2-6.44c4.47,2.21,8.4,4.69,11.25,8.69,1.19-.61.59-1.87,0.8-2.78,0.92-3.93,3-7.24,4.91-10.62h0.46c1,2.32,2.08,4.66,5.1,4.33,2.42-.26,3.15-2.24,3.69-4.33" transform="translate(-32.19 -10.73)" fill="#edda44"/><path d="M258.85,121.56c0,8.55-6.63,15.48-14.8,15.48s-14.8-6.93-14.8-15.48,6.63-15.48,14.8-15.48,14.8,6.93,14.8,15.48" transform="translate(-32.19 -10.73)" fill="#5b5121"/></g></svg>